<svg xmlns="http://www.w3.org/2000/svg" viewBox="0 0 509.59 27.03"><defs><style>.cls-1{fill:#b8c1e1;}.cls-2{fill:#6d85f0;}</style></defs><title>Asset 8</title><g id="Layer_2" data-name="Layer 2"><g id="Layer_1-2" data-name="Layer 1"><path class="cls-1" d="M7.83,11.15v.7h-7v-.7Z"/><path class="cls-1" d="M13.68,9.85a4.54,4.54,0,0,1-1.95.39A3.22,3.22,0,0,1,8.36,6.78,3.44,3.44,0,0,1,12,3.18a4.11,4.11,0,0,1,1.71.35l-.28,1A2.86,2.86,0,0,0,12,4.16a2.35,2.35,0,0,0-2.4,2.56A2.32,2.32,0,0,0,12,9.26a3.5,3.5,0,0,0,1.51-.34Z"/><path class="cls-1" d="M15.12.15h1.23V10.1H15.12Z"/><path class="cls-1" d="M19.8,1.42a.76.76,0,0,1-1.53,0A.75.75,0,0,1,19,.64.73.73,0,0,1,19.8,1.42ZM18.42,10.1V3.32h1.23V10.1Z"/><path class="cls-1" d="M26.53,9.85a4.54,4.54,0,0,1-1.95.39,3.22,3.22,0,0,1-3.38-3.46,3.44,3.44,0,0,1,3.64-3.6,4.11,4.11,0,0,1,1.71.35l-.28,1a2.86,2.86,0,0,0-1.43-.32,2.35,2.35,0,0,0-2.4,2.56,2.32,2.32,0,0,0,2.35,2.54,3.5,3.5,0,0,0,1.51-.34Z"/><path class="cls-1" d="M29.19,6.43h0c.17-.24.41-.53.6-.77l2-2.34H33.3L30.68,6.11l3,4h-1.5L29.82,6.85l-.63.7V10.1H28V.15h1.22Z"/><path class="cls-1" d="M43.64,6.65a3.31,3.31,0,0,1-3.38,3.6A3.22,3.22,0,0,1,37,6.77a3.31,3.31,0,0,1,3.36-3.6A3.21,3.21,0,0,1,43.64,6.65Zm-5.38.07c0,1.48.85,2.61,2.06,2.61s2.06-1.11,2.06-2.63c0-1.15-.57-2.61-2-2.61S38.26,5.44,38.26,6.72Z"/><path class="cls-1" d="M45.19,5.15c0-.7,0-1.27-.06-1.83h1.09l.07,1.12h0a2.49,2.49,0,0,1,2.24-1.27c.94,0,2.4.56,2.4,2.89v4H49.73V6.19c0-1.09-.41-2-1.57-2A1.81,1.81,0,0,0,46.43,6V10.1H45.19Z"/><path class="cls-1" d="M55.93.15h1.23V10.1H55.93Z"/><path class="cls-1" d="M65.37,6.65A3.31,3.31,0,0,1,62,10.25a3.22,3.22,0,0,1-3.25-3.49,3.31,3.31,0,0,1,3.36-3.6A3.21,3.21,0,0,1,65.37,6.65ZM60,6.72c0,1.48.85,2.61,2.06,2.61s2.06-1.11,2.06-2.63c0-1.15-.57-2.61-2-2.61S60,5.44,60,6.72Z"/><path class="cls-1" d="M72.76,3.32c0,.49-.06,1-.06,1.86V9.12c0,1.55-.31,2.51-1,3.1a3.6,3.6,0,0,1-2.47.81A4.38,4.38,0,0,1,67,12.47l.31-.94a3.82,3.82,0,0,0,2,.53c1.26,0,2.19-.66,2.19-2.37V8.94h0a2.42,2.42,0,0,1-2.16,1.13,3,3,0,0,1-2.89-3.31c0-2.3,1.5-3.6,3.05-3.6A2.26,2.26,0,0,1,71.6,4.34h0l.06-1ZM71.49,6a1.75,1.75,0,0,0-.07-.56,1.78,1.78,0,0,0-1.72-1.3c-1.18,0-2,1-2,2.56,0,1.33.67,2.44,2,2.44a1.8,1.8,0,0,0,1.71-1.26,2.15,2.15,0,0,0,.1-.66Z"/><path class="cls-1" d="M80.88,6.65a3.31,3.31,0,0,1-3.38,3.6,3.22,3.22,0,0,1-3.25-3.49,3.31,3.31,0,0,1,3.36-3.6A3.21,3.21,0,0,1,80.88,6.65Zm-5.38.07c0,1.48.85,2.61,2.06,2.61s2.06-1.11,2.06-2.63c0-1.15-.57-2.61-2-2.61S75.5,5.44,75.5,6.72Z"/><path class="cls-1" d="M86.88,1.37V3.32h1.77v.94H86.88V7.91c0,.84.24,1.32.92,1.32a2.75,2.75,0,0,0,.71-.08l.06.92a3,3,0,0,1-1.09.17,1.71,1.71,0,0,1-1.33-.52A2.51,2.51,0,0,1,85.68,8V4.26H84.63V3.32h1.05V1.7Z"/><path class="cls-1" d="M96.08,6.65a3.31,3.31,0,0,1-3.38,3.6,3.22,3.22,0,0,1-3.25-3.49,3.31,3.31,0,0,1,3.36-3.6A3.21,3.21,0,0,1,96.08,6.65Zm-5.38.07c0,1.48.85,2.61,2.06,2.61s2.06-1.11,2.06-2.63c0-1.15-.57-2.61-2-2.61S90.71,5.44,90.71,6.72Z"/><path class="cls-1" d="M100.44,8.84a3.23,3.23,0,0,0,1.63.49c.9,0,1.32-.45,1.32-1s-.35-.91-1.26-1.25c-1.22-.43-1.79-1.11-1.79-1.92a2.09,2.09,0,0,1,2.34-2,3.38,3.38,0,0,1,1.67.42l-.31.9a2.64,2.64,0,0,0-1.39-.39c-.73,0-1.13.42-1.13.92s.41.81,1.29,1.15c1.18.45,1.78,1,1.78,2,0,1.19-.92,2-2.54,2a3.86,3.86,0,0,1-1.9-.46Z"/><path class="cls-1" d="M106.83,6.93a2.17,2.17,0,0,0,2.33,2.35A4.46,4.46,0,0,0,111,8.94l.21.88a5.48,5.48,0,0,1-2.25.42,3.15,3.15,0,0,1-3.33-3.42c0-2,1.2-3.66,3.18-3.66,2.21,0,2.8,1.95,2.8,3.19a4.73,4.73,0,0,1,0,.57Zm3.61-.88a1.75,1.75,0,0,0-1.71-2,2,2,0,0,0-1.89,2Z"/><path class="cls-1" d="M113.85,6.93a2.17,2.17,0,0,0,2.33,2.35A4.46,4.46,0,0,0,118,8.94l.21.88a5.48,5.48,0,0,1-2.25.42,3.15,3.15,0,0,1-3.33-3.42c0-2,1.2-3.66,3.18-3.66,2.21,0,2.8,1.95,2.8,3.19a4.73,4.73,0,0,1,0,.57Zm3.61-.88a1.75,1.75,0,0,0-1.71-2,2,2,0,0,0-1.89,2Z"/><path class="cls-1" d="M124.52,1.42a.76.76,0,0,1-1.53,0,.75.75,0,0,1,.77-.77A.73.73,0,0,1,124.52,1.42Zm-1.37,8.68V3.32h1.23V10.1Z"/><path class="cls-1" d="M126.42,5.15c0-.7,0-1.27-.06-1.83h1.09l.07,1.12h0a2.49,2.49,0,0,1,2.24-1.27c.94,0,2.4.56,2.4,2.89v4H131V6.19c0-1.09-.41-2-1.57-2A1.81,1.81,0,0,0,127.65,6V10.1h-1.23Z"/><path class="cls-1" d="M134.31,10.1V4.26h-1V3.32h1V3A3.2,3.2,0,0,1,135.1.63,2.36,2.36,0,0,1,136.75,0a2.86,2.86,0,0,1,1.05.2l-.17,1a1.84,1.84,0,0,0-.78-.15c-1.05,0-1.32.92-1.32,2v.36h1.64v.94h-1.64V10.1Z"/><path class="cls-1" d="M144.23,6.65a3.31,3.31,0,0,1-3.38,3.6,3.22,3.22,0,0,1-3.25-3.49A3.31,3.31,0,0,1,141,3.17,3.21,3.21,0,0,1,144.23,6.65Zm-5.38.07c0,1.48.85,2.61,2.06,2.61S143,8.22,143,6.7c0-1.15-.57-2.61-2-2.61S138.85,5.44,138.85,6.72Z"/><path class="cls-1" d="M154.88,6.65a3.31,3.31,0,0,1-3.38,3.6,3.22,3.22,0,0,1-3.25-3.49,3.31,3.31,0,0,1,3.36-3.6A3.21,3.21,0,0,1,154.88,6.65Zm-5.38.07c0,1.48.85,2.61,2.06,2.61s2.06-1.11,2.06-2.63c0-1.15-.57-2.61-2-2.61S149.5,5.44,149.5,6.72Z"/><path class="cls-1" d="M156.43,5.44c0-.8,0-1.48-.06-2.12h1.08l0,1.33h.06a2,2,0,0,1,1.88-1.48,1.32,1.32,0,0,1,.35,0V4.37a1.84,1.84,0,0,0-.42,0,1.73,1.73,0,0,0-1.65,1.58,3.44,3.44,0,0,0-.06.57V10.1h-1.22Z"/><path class="cls-1" d="M165.46,1.37V3.32h1.77v.94h-1.77V7.91c0,.84.24,1.32.92,1.32a2.74,2.74,0,0,0,.71-.08l.06.92a3,3,0,0,1-1.09.17,1.71,1.71,0,0,1-1.33-.52A2.51,2.51,0,0,1,164.26,8V4.26h-1.05V3.32h1.05V1.7Z"/><path class="cls-1" d="M174.67,6.65a3.31,3.31,0,0,1-3.38,3.6A3.22,3.22,0,0,1,168,6.77a3.31,3.31,0,0,1,3.36-3.6A3.21,3.21,0,0,1,174.67,6.65Zm-5.38.07c0,1.48.85,2.61,2.06,2.61s2.06-1.11,2.06-2.63c0-1.15-.57-2.61-2-2.61S169.29,5.44,169.29,6.72Z"/><path class="cls-1" d="M184,9.85a4.54,4.54,0,0,1-1.95.39,3.22,3.22,0,0,1-3.38-3.46,3.44,3.44,0,0,1,3.64-3.6,4.11,4.11,0,0,1,1.71.35l-.28,1a2.86,2.86,0,0,0-1.43-.32,2.35,2.35,0,0,0-2.4,2.56,2.32,2.32,0,0,0,2.35,2.54,3.5,3.5,0,0,0,1.51-.34Z"/><path class="cls-1" d="M185.46.15h1.23V4.38h0a2.29,2.29,0,0,1,.88-.87,2.54,2.54,0,0,1,1.26-.35c.91,0,2.37.56,2.37,2.9v4H190V6.21c0-1.09-.41-2-1.57-2a1.77,1.77,0,0,0-1.65,1.23,1.49,1.49,0,0,0-.08.59V10.1h-1.23Z"/><path class="cls-1" d="M197,10.1l-.1-.85h0a2.53,2.53,0,0,1-2.07,1,1.93,1.93,0,0,1-2.07-1.95c0-1.64,1.46-2.54,4.08-2.52V5.65a1.4,1.4,0,0,0-1.54-1.57,3.38,3.38,0,0,0-1.76.5l-.28-.81a4.21,4.21,0,0,1,2.23-.6c2.07,0,2.58,1.41,2.58,2.77V8.47a9.56,9.56,0,0,0,.11,1.63Zm-.18-3.46c-1.34,0-2.87.21-2.87,1.53a1.09,1.09,0,0,0,1.16,1.18,1.69,1.69,0,0,0,1.64-1.13,1.29,1.29,0,0,0,.07-.39Z"/><path class="cls-1" d="M200,5.15c0-.7,0-1.27-.06-1.83H201l.07,1.12h0a2.49,2.49,0,0,1,2.24-1.27c.94,0,2.4.56,2.4,2.89v4h-1.23V6.19c0-1.09-.41-2-1.57-2A1.81,1.81,0,0,0,201.21,6V10.1H200Z"/><path class="cls-1" d="M213.58,3.32c0,.49-.06,1-.06,1.86V9.12c0,1.55-.31,2.51-1,3.1a3.6,3.6,0,0,1-2.47.81,4.38,4.38,0,0,1-2.26-.56l.31-.94a3.82,3.82,0,0,0,2,.53c1.26,0,2.19-.66,2.19-2.37V8.94h0a2.42,2.42,0,0,1-2.16,1.13,3,3,0,0,1-2.89-3.31c0-2.3,1.5-3.6,3.05-3.6a2.26,2.26,0,0,1,2.12,1.18h0l.06-1ZM212.31,6a1.75,1.75,0,0,0-.07-.56,1.78,1.78,0,0,0-1.72-1.3c-1.18,0-2,1-2,2.56,0,1.33.67,2.44,2,2.44a1.8,1.8,0,0,0,1.71-1.26,2.14,2.14,0,0,0,.1-.66Z"/><path class="cls-1" d="M216.26,6.93a2.17,2.17,0,0,0,2.33,2.35,4.46,4.46,0,0,0,1.88-.35l.21.88a5.48,5.48,0,0,1-2.25.42,3.15,3.15,0,0,1-3.33-3.42c0-2,1.2-3.66,3.18-3.66,2.21,0,2.8,1.95,2.8,3.19a4.73,4.73,0,0,1,0,.57Zm3.61-.88a1.75,1.75,0,0,0-1.71-2,2,2,0,0,0-1.89,2Z"/><path class="cls-1" d="M227,1.37V3.32h1.76v.94H227V7.91c0,.84.24,1.32.92,1.32a2.75,2.75,0,0,0,.71-.08l.06.92a3,3,0,0,1-1.09.17,1.71,1.71,0,0,1-1.33-.52A2.51,2.51,0,0,1,225.83,8V4.26h-1.05V3.32h1.05V1.7Z"/><path class="cls-1" d="M230.18.15h1.23V4.38h0a2.29,2.29,0,0,1,.88-.87,2.54,2.54,0,0,1,1.26-.35c.91,0,2.37.56,2.37,2.9v4h-1.23V6.21c0-1.09-.41-2-1.57-2a1.77,1.77,0,0,0-1.65,1.23,1.49,1.49,0,0,0-.08.59V10.1h-1.23Z"/><path class="cls-1" d="M238.64,6.93A2.17,2.17,0,0,0,241,9.29a4.45,4.45,0,0,0,1.88-.35l.21.88a5.48,5.48,0,0,1-2.25.42,3.15,3.15,0,0,1-3.33-3.42c0-2,1.21-3.66,3.18-3.66,2.21,0,2.8,1.95,2.8,3.19a4.73,4.73,0,0,1,0,.57Zm3.61-.88a1.76,1.76,0,0,0-1.71-2,2,2,0,0,0-1.89,2Z"/><path class="cls-1" d="M245,5.15c0-.7,0-1.27-.06-1.83H246L246,4.41h0a2.34,2.34,0,0,1,2.13-1.25,2,2,0,0,1,1.92,1.36h0a2.79,2.79,0,0,1,.76-.88,2.31,2.31,0,0,1,1.5-.48c.9,0,2.23.59,2.23,2.94v4h-1.21V6.26c0-1.3-.48-2.09-1.47-2.09a1.6,1.6,0,0,0-1.46,1.12,2,2,0,0,0-.1.62V10.1h-1.21V6c0-1.08-.48-1.86-1.41-1.86a1.68,1.68,0,0,0-1.53,1.23,1.69,1.69,0,0,0-.1.6V10.1H245Z"/><path class="cls-1" d="M257.33,6.93a2.17,2.17,0,0,0,2.33,2.35,4.45,4.45,0,0,0,1.88-.35l.21.88a5.48,5.48,0,0,1-2.25.42,3.15,3.15,0,0,1-3.33-3.42c0-2,1.21-3.66,3.18-3.66,2.21,0,2.8,1.95,2.8,3.19a4.73,4.73,0,0,1,0,.57Zm3.61-.88a1.76,1.76,0,0,0-1.71-2,2,2,0,0,0-1.89,2Z"/><path class="cls-2" d="M269.64,11.15v.7h-7v-.7Z"/><path class="cls-2" d="M274.69,9.83a4.68,4.68,0,0,1-2,.41,2.44,2.44,0,0,1-2.61-2.62,4.29,4.29,0,0,1,4.15-4.44,3.45,3.45,0,0,1,1.41.29l-.34.92a2.63,2.63,0,0,0-1.15-.25c-1.76,0-2.87,1.74-2.87,3.33A1.6,1.6,0,0,0,273,9.29a3.56,3.56,0,0,0,1.57-.38Z"/><path class="cls-2" d="M276,10.1,277.85.15H279l-1.91,9.95Z"/><path class="cls-2" d="M279.15,10.1l1.3-6.78h1.16l-1.3,6.78Zm1.51-8.67a.77.77,0,0,1,.77-.78.67.67,0,0,1,.69.73.77.77,0,0,1-.79.78A.67.67,0,0,1,280.67,1.43Z"/><path class="cls-2" d="M287,9.83a4.68,4.68,0,0,1-2,.41,2.44,2.44,0,0,1-2.61-2.62,4.29,4.29,0,0,1,4.15-4.44,3.45,3.45,0,0,1,1.41.29l-.34.92a2.63,2.63,0,0,0-1.15-.25c-1.76,0-2.87,1.74-2.87,3.33a1.6,1.6,0,0,0,1.68,1.81,3.56,3.56,0,0,0,1.57-.38Z"/><path class="cls-2" d="M288.3,10.1,290.17.15h1.16l-1.19,6.23h0c.21-.24.46-.49.63-.69l2.39-2.38h1.43l-3,2.79,2,4h-1.29l-1.62-3.35-.85.77-.49,2.58Z"/><path class="cls-2" d="M303.71,6c0,2.09-1.48,4.26-3.75,4.26a2.59,2.59,0,0,1-2.65-2.79c0-2.23,1.55-4.3,3.75-4.3A2.59,2.59,0,0,1,303.71,6Zm-5.2,1.43c0,1.11.6,1.9,1.6,1.9,1.37,0,2.41-1.76,2.41-3.35a1.68,1.68,0,0,0-1.58-1.89C299.48,4.09,298.5,5.87,298.52,7.42Z"/><path class="cls-2" d="M304.52,10.1l.91-4.8c.15-.76.24-1.41.32-2h1l-.17,1.33h0a3,3,0,0,1,2.51-1.48,1.67,1.67,0,0,1,1.72,1.89,6.62,6.62,0,0,1-.13,1.09l-.76,4h-1.16l.74-3.91a4.49,4.49,0,0,0,.1-.87c0-.69-.27-1.19-1.06-1.19s-2,1-2.31,2.68l-.62,3.29Z"/><path class="cls-2" d="M314.56,10.1,316.45.15h1.16l-1.91,9.95Z"/><path class="cls-2" d="M324.25,6c0,2.09-1.48,4.26-3.75,4.26a2.59,2.59,0,0,1-2.65-2.79c0-2.23,1.55-4.3,3.75-4.3A2.59,2.59,0,0,1,324.25,6Zm-5.2,1.43c0,1.11.6,1.9,1.6,1.9,1.37,0,2.41-1.76,2.41-3.35a1.68,1.68,0,0,0-1.58-1.89C320,4.09,319,5.87,319.05,7.42Z"/><path class="cls-2" d="M325.17,11.64a3.6,3.6,0,0,0,1.79.45c1.13,0,2-.59,2.44-2.42l.22-1h0a2.7,2.7,0,0,1-2.35,1.44,2.14,2.14,0,0,1-2.06-2.35,4.42,4.42,0,0,1,4.3-4.58,5.52,5.52,0,0,1,2.17.48l-1,5.6a5.05,5.05,0,0,1-1.37,3,3.57,3.57,0,0,1-2.37.76,4,4,0,0,1-2-.48Zm5.2-7.31a2.83,2.83,0,0,0-1.12-.22c-1.69,0-2.86,1.76-2.87,3.45,0,.74.27,1.62,1.3,1.62s2-1.26,2.25-2.59Z"/><path class="cls-2" d="M338.94,6c0,2.09-1.48,4.26-3.75,4.26a2.59,2.59,0,0,1-2.65-2.79c0-2.23,1.55-4.3,3.75-4.3A2.59,2.59,0,0,1,338.94,6Zm-5.2,1.43c0,1.11.6,1.9,1.6,1.9,1.37,0,2.41-1.76,2.41-3.35a1.68,1.68,0,0,0-1.58-1.89C334.71,4.09,333.73,5.87,333.74,7.42Z"/><path class="cls-2" d="M345.33,1.5,345,3.32h1.63l-.18.91H344.8l-.63,3.29A5.91,5.91,0,0,0,344,8.61a.57.57,0,0,0,.64.64,3.23,3.23,0,0,0,.55,0l-.06.91a2.69,2.69,0,0,1-.9.13,1.26,1.26,0,0,1-1.43-1.32A6.27,6.27,0,0,1,343,7.66l.67-3.43h-1l.18-.91h1l.29-1.53Z"/><path class="cls-2" d="M353.12,6c0,2.09-1.48,4.26-3.75,4.26a2.59,2.59,0,0,1-2.65-2.79c0-2.23,1.55-4.3,3.75-4.3A2.59,2.59,0,0,1,353.12,6Zm-5.2,1.43c0,1.11.6,1.9,1.6,1.9,1.37,0,2.41-1.76,2.41-3.35a1.68,1.68,0,0,0-1.58-1.89C348.89,4.09,347.91,5.87,347.92,7.42Z"/><path class="cls-2" d="M356.53,8.92a3.08,3.08,0,0,0,1.46.42,1.17,1.17,0,0,0,1.29-1.11c0-.53-.24-.85-.94-1.25a2,2,0,0,1-1.22-1.72,2.23,2.23,0,0,1,2.45-2.1A2.82,2.82,0,0,1,361,3.5l-.32.88a2.42,2.42,0,0,0-1.18-.31,1.09,1.09,0,0,0-1.21,1c0,.49.32.8.92,1.13A2.13,2.13,0,0,1,360.48,8a2.31,2.31,0,0,1-2.59,2.23,3,3,0,0,1-1.68-.46Z"/><path class="cls-2" d="M366.58,9.71a4.68,4.68,0,0,1-2.24.53,2.44,2.44,0,0,1-2.58-2.72c0-2,1.51-4.36,3.7-4.36a1.76,1.76,0,0,1,2,1.74c0,1.78-2,2.26-4.51,2.21a2.82,2.82,0,0,0,.14,1.29,1.54,1.54,0,0,0,1.51.91,3.78,3.78,0,0,0,1.82-.48ZM365.3,4.08c-1.11,0-1.93,1.08-2.21,2.14,1.82,0,3.25-.22,3.25-1.27C366.33,4.38,365.91,4.08,365.3,4.08Z"/><path class="cls-2" d="M372.93,9.71a4.68,4.68,0,0,1-2.24.53,2.44,2.44,0,0,1-2.58-2.72c0-2,1.51-4.36,3.7-4.36a1.76,1.76,0,0,1,2,1.74c0,1.78-2,2.26-4.51,2.21a2.82,2.82,0,0,0,.14,1.29,1.54,1.54,0,0,0,1.51.91,3.78,3.78,0,0,0,1.82-.48Zm-1.29-5.63c-1.11,0-1.93,1.08-2.21,2.14,1.82,0,3.25-.22,3.25-1.27C372.67,4.38,372.25,4.08,371.64,4.08Z"/><path class="cls-2" d="M376.93,10.1l1.3-6.78h1.16l-1.3,6.78Zm1.51-8.67a.77.77,0,0,1,.77-.78.67.67,0,0,1,.69.73.77.77,0,0,1-.78.78A.67.67,0,0,1,378.44,1.43Z"/><path class="cls-2" d="M380.13,10.1l.91-4.8c.15-.76.24-1.41.32-2h1l-.17,1.33h0a3,3,0,0,1,2.51-1.48,1.67,1.67,0,0,1,1.72,1.89,6.62,6.62,0,0,1-.13,1.09l-.76,4h-1.16l.74-3.91a4.49,4.49,0,0,0,.1-.87c0-.69-.27-1.19-1.06-1.19s-2,1-2.31,2.68l-.62,3.29Z"/><path class="cls-2" d="M387.78,10.1l1.11-5.87H388l.17-.91h.91l.07-.35A4,4,0,0,1,390.24.6a2.39,2.39,0,0,1,1.61-.6,1.83,1.83,0,0,1,.92.18l-.25.92a1.66,1.66,0,0,0-.69-.13c-.92,0-1.37.9-1.57,2l-.06.32h1.51l-.18.91H390l-1.12,5.87Z"/><path class="cls-2" d="M398.07,6c0,2.09-1.48,4.26-3.75,4.26a2.59,2.59,0,0,1-2.65-2.79c0-2.23,1.55-4.3,3.75-4.3A2.59,2.59,0,0,1,398.07,6Zm-5.2,1.43c0,1.11.6,1.9,1.6,1.9,1.37,0,2.41-1.76,2.41-3.35a1.68,1.68,0,0,0-1.58-1.89C393.84,4.09,392.86,5.87,392.87,7.42Z"/><path class="cls-2" d="M407.93,6c0,2.09-1.48,4.26-3.75,4.26a2.59,2.59,0,0,1-2.65-2.79c0-2.23,1.55-4.3,3.75-4.3A2.59,2.59,0,0,1,407.93,6Zm-5.2,1.43c0,1.11.6,1.9,1.6,1.9,1.37,0,2.41-1.76,2.41-3.35a1.68,1.68,0,0,0-1.58-1.89C403.69,4.09,402.71,5.87,402.73,7.42Z"/><path class="cls-2" d="M408.73,10.1l.83-4.37c.17-.88.28-1.78.35-2.41h1c-.06.48-.11,1-.18,1.47h0a2.45,2.45,0,0,1,2.07-1.62l.32,0L413,4.34a1.67,1.67,0,0,0-.31,0c-1,0-1.91,1.22-2.2,2.8l-.56,3Z"/><path class="cls-2" d="M418.77,1.5l-.35,1.82H420l-.18.91h-1.62l-.63,3.29a5.91,5.91,0,0,0-.13,1.09.57.57,0,0,0,.64.64,3.23,3.23,0,0,0,.55,0l-.06.91a2.69,2.69,0,0,1-.9.13,1.26,1.26,0,0,1-1.43-1.32,6.27,6.27,0,0,1,.14-1.27l.67-3.43h-1l.18-.91h1l.29-1.53Z"/><path class="cls-2" d="M426.56,6c0,2.09-1.48,4.26-3.75,4.26a2.59,2.59,0,0,1-2.65-2.79c0-2.23,1.55-4.3,3.75-4.3A2.59,2.59,0,0,1,426.56,6Zm-5.2,1.43c0,1.11.6,1.9,1.6,1.9,1.37,0,2.41-1.76,2.41-3.35a1.68,1.68,0,0,0-1.58-1.89C422.33,4.09,421.35,5.87,421.36,7.42Z"/><path class="cls-2" d="M434.58,9.83a4.69,4.69,0,0,1-2,.41A2.44,2.44,0,0,1,430,7.62a4.29,4.29,0,0,1,4.15-4.44,3.46,3.46,0,0,1,1.42.29l-.34.92a2.63,2.63,0,0,0-1.15-.25c-1.76,0-2.87,1.74-2.87,3.33a1.6,1.6,0,0,0,1.68,1.81,3.56,3.56,0,0,0,1.57-.38Z"/><path class="cls-2" d="M435.84,10.1,437.73.15h1.16L438,4.52h0a2.91,2.91,0,0,1,2.42-1.36A1.64,1.64,0,0,1,442.18,5a6.32,6.32,0,0,1-.11,1.15l-.76,4h-1.16l.76-3.91a5.53,5.53,0,0,0,.08-.94,1,1,0,0,0-1.05-1.12c-.9,0-2,1.05-2.31,2.58L437,10.1Z"/><path class="cls-2" d="M447.81,10.1A17.52,17.52,0,0,1,448,8.35h0a3,3,0,0,1-2.63,1.91A2,2,0,0,1,443.35,8,4.73,4.73,0,0,1,448,3.17a6.31,6.31,0,0,1,1.82.27L449.18,7a15.52,15.52,0,0,0-.29,3.14Zm.76-5.91a3.15,3.15,0,0,0-.81-.1c-1.75,0-3.18,1.83-3.19,3.71,0,.76.27,1.5,1.16,1.5s2.12-1.26,2.45-3.07Z"/><path class="cls-2" d="M450.62,10.1l.91-4.8c.15-.76.24-1.41.32-2h1l-.17,1.33h0a3,3,0,0,1,2.51-1.48A1.67,1.67,0,0,1,457,5.06a6.62,6.62,0,0,1-.13,1.09l-.76,4h-1.16l.74-3.91a4.49,4.49,0,0,0,.1-.87c0-.69-.27-1.19-1.06-1.19s-2,1-2.31,2.68l-.62,3.29Z"/><path class="cls-2" d="M458.16,11.64a3.6,3.6,0,0,0,1.79.45c1.13,0,2-.59,2.44-2.42l.22-1h0a2.7,2.7,0,0,1-2.35,1.44,2.14,2.14,0,0,1-2.06-2.35,4.42,4.42,0,0,1,4.3-4.58,5.52,5.52,0,0,1,2.17.48l-1,5.6a5.05,5.05,0,0,1-1.37,3,3.57,3.57,0,0,1-2.37.76,4,4,0,0,1-2-.48Zm5.2-7.31a2.83,2.83,0,0,0-1.12-.22c-1.69,0-2.86,1.76-2.87,3.45,0,.74.27,1.62,1.3,1.62s2-1.26,2.25-2.59Z"/><path class="cls-2" d="M470.32,9.71a4.68,4.68,0,0,1-2.24.53,2.44,2.44,0,0,1-2.58-2.72c0-2,1.51-4.36,3.7-4.36a1.76,1.76,0,0,1,2,1.74c0,1.78-2,2.26-4.51,2.21a2.82,2.82,0,0,0,.14,1.29,1.54,1.54,0,0,0,1.51.91,3.78,3.78,0,0,0,1.82-.48ZM469,4.08c-1.11,0-1.93,1.08-2.21,2.14,1.82,0,3.25-.22,3.25-1.27C470.07,4.38,469.65,4.08,469,4.08Z"/><path class="cls-2" d="M477.36,1.5,477,3.32h1.62l-.18.91h-1.62l-.63,3.29a5.91,5.91,0,0,0-.13,1.09.57.57,0,0,0,.64.64,3.23,3.23,0,0,0,.55,0l-.06.91a2.69,2.69,0,0,1-.9.13,1.26,1.26,0,0,1-1.43-1.32A6.27,6.27,0,0,1,475,7.66l.67-3.43h-1l.18-.91h1l.29-1.53Z"/><path class="cls-2" d="M478.7,10.1,480.59.15h1.16l-.84,4.37h0a2.91,2.91,0,0,1,2.42-1.36A1.64,1.64,0,0,1,485,5a6.32,6.32,0,0,1-.11,1.15l-.76,4H483l.76-3.91a5.53,5.53,0,0,0,.08-.94,1,1,0,0,0-1.05-1.12c-.9,0-2,1.05-2.31,2.58l-.63,3.39Z"/><path class="cls-2" d="M491.07,9.71a4.68,4.68,0,0,1-2.24.53,2.44,2.44,0,0,1-2.58-2.72c0-2,1.51-4.36,3.7-4.36a1.76,1.76,0,0,1,2,1.74c0,1.78-2,2.26-4.51,2.21a2.82,2.82,0,0,0,.14,1.29,1.54,1.54,0,0,0,1.51.91,3.78,3.78,0,0,0,1.82-.48Zm-1.29-5.63c-1.11,0-1.93,1.08-2.21,2.14,1.82,0,3.25-.22,3.25-1.27C490.81,4.38,490.39,4.08,489.78,4.08Z"/><path class="cls-2" d="M492.52,10.1l.91-4.8c.14-.76.24-1.41.31-2h1l-.18,1.27h0A2.9,2.9,0,0,1,497,3.17a1.47,1.47,0,0,1,1.58,1.51,2.91,2.91,0,0,1,2.49-1.51,1.61,1.61,0,0,1,1.64,1.78,6.88,6.88,0,0,1-.11,1.15l-.76,4h-1.13l.73-3.91a4.5,4.5,0,0,0,.1-.88c0-.71-.27-1.18-1-1.18s-1.83,1-2.12,2.49l-.66,3.47h-1.12l.76-4a4.39,4.39,0,0,0,.08-.83c0-.57-.15-1.16-1-1.16s-1.91,1.12-2.17,2.56l-.63,3.4Z"/><path class="cls-2" d="M508.72,9.71a4.68,4.68,0,0,1-2.24.53,2.44,2.44,0,0,1-2.58-2.72c0-2,1.51-4.36,3.7-4.36a1.76,1.76,0,0,1,2,1.74c0,1.78-2,2.26-4.51,2.21a2.82,2.82,0,0,0,.14,1.29,1.54,1.54,0,0,0,1.51.91,3.78,3.78,0,0,0,1.82-.48Zm-1.29-5.63c-1.11,0-1.93,1.08-2.21,2.14,1.82,0,3.25-.22,3.25-1.27C508.47,4.38,508,4.08,507.43,4.08Z"/><path class="cls-2" d="M7.14,25.15l-.14.7H0l.14-.7Z"/><path class="cls-2" d="M12.88,23.83a4.68,4.68,0,0,1-2,.41,2.44,2.44,0,0,1-2.61-2.62,4.29,4.29,0,0,1,4.15-4.44,3.45,3.45,0,0,1,1.41.29l-.34.92a2.64,2.64,0,0,0-1.15-.25c-1.77,0-2.87,1.74-2.87,3.33a1.6,1.6,0,0,0,1.68,1.81,3.57,3.57,0,0,0,1.57-.38Z"/><path class="cls-2" d="M14.15,24.1,16,14.15h1.16L15.3,24.1Z"/><path class="cls-2" d="M17.35,24.1l1.3-6.78h1.16l-1.3,6.78Zm1.51-8.67a.77.77,0,0,1,.77-.78.67.67,0,0,1,.69.73.77.77,0,0,1-.78.78A.67.67,0,0,1,18.86,15.43Z"/><path class="cls-2" d="M25.22,23.83a4.68,4.68,0,0,1-2,.41,2.44,2.44,0,0,1-2.61-2.62,4.29,4.29,0,0,1,4.15-4.44,3.45,3.45,0,0,1,1.41.29l-.34.92a2.64,2.64,0,0,0-1.15-.25c-1.77,0-2.87,1.74-2.87,3.33a1.6,1.6,0,0,0,1.68,1.81,3.57,3.57,0,0,0,1.57-.38Z"/><path class="cls-2" d="M26.49,24.1l1.88-9.95h1.16l-1.19,6.23h0c.21-.24.46-.49.63-.69l2.4-2.38h1.43l-3,2.79,2,4H30.61L29,20.75l-.85.77-.49,2.58Z"/><path class="cls-2" d="M41.91,20c0,2.09-1.48,4.26-3.75,4.26a2.59,2.59,0,0,1-2.65-2.79c0-2.23,1.55-4.3,3.75-4.3A2.59,2.59,0,0,1,41.91,20Zm-5.2,1.43c0,1.11.6,1.9,1.6,1.9,1.37,0,2.41-1.76,2.41-3.35a1.68,1.68,0,0,0-1.58-1.89C37.68,18.09,36.7,19.87,36.71,21.42Z"/><path class="cls-2" d="M42.71,24.1l.91-4.8c.15-.76.24-1.41.32-2h1l-.17,1.33h0a3,3,0,0,1,2.51-1.48,1.67,1.67,0,0,1,1.72,1.89,6.51,6.51,0,0,1-.13,1.09l-.76,4H47l.74-3.91a4.45,4.45,0,0,0,.1-.87c0-.69-.27-1.19-1.06-1.19s-2,1-2.31,2.68l-.62,3.29Z"/><path class="cls-2" d="M52.75,24.1l1.89-9.95h1.16L53.9,24.1Z"/><path class="cls-2" d="M62.44,20c0,2.09-1.48,4.26-3.75,4.26A2.59,2.59,0,0,1,56,21.47c0-2.23,1.55-4.3,3.75-4.3A2.59,2.59,0,0,1,62.44,20Zm-5.2,1.43c0,1.11.6,1.9,1.6,1.9,1.37,0,2.41-1.76,2.41-3.35a1.68,1.68,0,0,0-1.58-1.89C58.21,18.09,57.23,19.87,57.25,21.42Z"/><path class="cls-2" d="M63.36,25.64a3.6,3.6,0,0,0,1.79.45c1.13,0,2-.59,2.44-2.42l.22-1h0a2.7,2.7,0,0,1-2.35,1.44,2.14,2.14,0,0,1-2.06-2.35,4.42,4.42,0,0,1,4.3-4.58,5.52,5.52,0,0,1,2.17.48l-1,5.6a5.05,5.05,0,0,1-1.37,3,3.58,3.58,0,0,1-2.37.76,4,4,0,0,1-2-.48Zm5.2-7.31a2.83,2.83,0,0,0-1.12-.22c-1.69,0-2.86,1.76-2.87,3.45,0,.74.27,1.63,1.3,1.63s2-1.26,2.25-2.59Z"/><path class="cls-2" d="M77.13,20c0,2.09-1.48,4.26-3.75,4.26a2.59,2.59,0,0,1-2.65-2.79c0-2.23,1.55-4.3,3.75-4.3A2.59,2.59,0,0,1,77.13,20Zm-5.2,1.43c0,1.11.6,1.9,1.6,1.9,1.37,0,2.41-1.76,2.41-3.35a1.68,1.68,0,0,0-1.58-1.89C72.9,18.09,71.92,19.87,71.93,21.42Z"/><path class="cls-2" d="M83.52,15.5l-.35,1.82H84.8l-.18.91H83l-.63,3.29a6,6,0,0,0-.13,1.09.57.57,0,0,0,.64.64,3.23,3.23,0,0,0,.55,0l-.06.91a2.69,2.69,0,0,1-.9.13A1.26,1.26,0,0,1,81,22.94a6.31,6.31,0,0,1,.14-1.27l.67-3.43h-1l.18-.91h1l.29-1.53Z"/><path class="cls-2" d="M91.31,20c0,2.09-1.48,4.26-3.75,4.26a2.59,2.59,0,0,1-2.65-2.79c0-2.23,1.55-4.3,3.75-4.3A2.59,2.59,0,0,1,91.31,20Zm-5.2,1.43c0,1.11.6,1.9,1.6,1.9,1.37,0,2.41-1.76,2.41-3.35a1.68,1.68,0,0,0-1.58-1.89C87.08,18.09,86.1,19.87,86.11,21.42Z"/><path class="cls-2" d="M94.72,22.92a3.09,3.09,0,0,0,1.46.42,1.17,1.17,0,0,0,1.29-1.11c0-.53-.24-.85-.94-1.25a2,2,0,0,1-1.22-1.72,2.23,2.23,0,0,1,2.45-2.1,2.82,2.82,0,0,1,1.42.34l-.32.88a2.42,2.42,0,0,0-1.18-.31,1.09,1.09,0,0,0-1.2,1c0,.49.32.8.92,1.13A2.13,2.13,0,0,1,98.67,22a2.31,2.31,0,0,1-2.59,2.23,3,3,0,0,1-1.68-.46Z"/><path class="cls-2" d="M104.78,23.71a4.68,4.68,0,0,1-2.24.53A2.44,2.44,0,0,1,100,21.52c0-2,1.51-4.36,3.7-4.36a1.76,1.76,0,0,1,2,1.74c0,1.78-2,2.26-4.51,2.21a2.82,2.82,0,0,0,.14,1.29,1.54,1.54,0,0,0,1.51.91,3.78,3.78,0,0,0,1.82-.48Zm-1.29-5.63c-1.11,0-1.93,1.08-2.21,2.14,1.82,0,3.25-.22,3.25-1.27C104.52,18.38,104.1,18.08,103.49,18.08Z"/><path class="cls-2" d="M111.12,23.71a4.68,4.68,0,0,1-2.24.53,2.44,2.44,0,0,1-2.58-2.72c0-2,1.51-4.36,3.7-4.36a1.76,1.76,0,0,1,2,1.74c0,1.78-2,2.26-4.51,2.21a2.82,2.82,0,0,0,.14,1.29,1.54,1.54,0,0,0,1.51.91,3.78,3.78,0,0,0,1.82-.48Zm-1.29-5.63c-1.11,0-1.93,1.08-2.21,2.14,1.82,0,3.25-.22,3.25-1.27C110.87,18.38,110.45,18.08,109.83,18.08Z"/><path class="cls-2" d="M115.12,24.1l1.3-6.78h1.16l-1.3,6.78Zm1.51-8.67a.77.77,0,0,1,.77-.78.67.67,0,0,1,.69.73.77.77,0,0,1-.78.78A.67.67,0,0,1,116.63,15.43Z"/><path class="cls-2" d="M118.33,24.1l.91-4.8c.15-.76.24-1.41.32-2h1l-.17,1.33h0A3,3,0,0,1,123,17.17a1.67,1.67,0,0,1,1.72,1.89,6.51,6.51,0,0,1-.13,1.09l-.76,4h-1.16l.74-3.91a4.45,4.45,0,0,0,.1-.87c0-.69-.27-1.19-1.06-1.19s-2,1-2.31,2.68l-.62,3.29Z"/><path class="cls-2" d="M126,24.1l1.11-5.87h-.9l.17-.91h.91l.07-.35a4,4,0,0,1,1.11-2.37A2.39,2.39,0,0,1,130,14a1.84,1.84,0,0,1,.92.18l-.25.92A1.66,1.66,0,0,0,130,15c-.92,0-1.37.9-1.57,2l-.06.32h1.51l-.18.91h-1.5l-1.12,5.87Z"/><path class="cls-2" d="M136.26,20c0,2.09-1.48,4.26-3.75,4.26a2.59,2.59,0,0,1-2.65-2.79c0-2.23,1.55-4.3,3.75-4.3A2.59,2.59,0,0,1,136.26,20Zm-5.2,1.43c0,1.11.6,1.9,1.6,1.9,1.37,0,2.41-1.76,2.41-3.35a1.68,1.68,0,0,0-1.58-1.89C132,18.09,131.05,19.87,131.07,21.42Z"/><path class="cls-2" d="M146.12,20c0,2.09-1.48,4.26-3.75,4.26a2.59,2.59,0,0,1-2.65-2.79c0-2.23,1.55-4.3,3.75-4.3A2.59,2.59,0,0,1,146.12,20Zm-5.2,1.43c0,1.11.6,1.9,1.6,1.9,1.37,0,2.41-1.76,2.41-3.35a1.68,1.68,0,0,0-1.58-1.89C141.89,18.09,140.91,19.87,140.92,21.42Z"/><path class="cls-2" d="M146.93,24.1l.83-4.37c.17-.88.28-1.78.35-2.41h1c-.06.48-.11,1-.18,1.47h0a2.45,2.45,0,0,1,2.07-1.62l.32,0-.22,1.15a1.69,1.69,0,0,0-.31,0c-1,0-1.91,1.22-2.2,2.8l-.56,3Z"/><path class="cls-2" d="M157,15.5l-.35,1.82h1.63l-.18.91h-1.62l-.63,3.29a6,6,0,0,0-.13,1.09.57.57,0,0,0,.64.64,3.23,3.23,0,0,0,.55,0l-.06.91a2.69,2.69,0,0,1-.9.13,1.26,1.26,0,0,1-1.43-1.32,6.31,6.31,0,0,1,.14-1.27l.67-3.43h-1l.18-.91h1l.29-1.53Z"/><path class="cls-2" d="M164.75,20c0,2.09-1.48,4.26-3.75,4.26a2.59,2.59,0,0,1-2.65-2.79c0-2.23,1.55-4.3,3.75-4.3A2.59,2.59,0,0,1,164.75,20Zm-5.2,1.43c0,1.11.6,1.9,1.6,1.9,1.37,0,2.41-1.76,2.41-3.35A1.68,1.68,0,0,0,162,18.09C160.52,18.09,159.54,19.87,159.55,21.42Z"/><path class="cls-2" d="M172.77,23.83a4.68,4.68,0,0,1-2,.41,2.44,2.44,0,0,1-2.61-2.62,4.29,4.29,0,0,1,4.15-4.44,3.45,3.45,0,0,1,1.41.29l-.34.92a2.63,2.63,0,0,0-1.15-.25c-1.76,0-2.87,1.74-2.87,3.33a1.6,1.6,0,0,0,1.68,1.81,3.57,3.57,0,0,0,1.57-.38Z"/><path class="cls-2" d="M174,24.1l1.89-9.95h1.16l-.84,4.37h0a2.91,2.91,0,0,1,2.42-1.36A1.64,1.64,0,0,1,180.37,19a6.23,6.23,0,0,1-.11,1.15l-.76,4h-1.16l.76-3.91a5.53,5.53,0,0,0,.08-.94,1,1,0,0,0-1.05-1.12c-.9,0-2,1.05-2.31,2.58l-.63,3.39Z"/><path class="cls-2" d="M186,24.1a17.37,17.37,0,0,1,.15-1.75h0a3,3,0,0,1-2.63,1.91A2,2,0,0,1,181.55,22a4.73,4.73,0,0,1,4.69-4.85,6.32,6.32,0,0,1,1.82.27L187.37,21a15.51,15.51,0,0,0-.29,3.14Zm.76-5.91a3.14,3.14,0,0,0-.81-.1c-1.75,0-3.18,1.83-3.19,3.71,0,.76.27,1.5,1.16,1.5S186,22,186.37,20.23Z"/><path class="cls-2" d="M188.81,24.1l.91-4.8c.15-.76.24-1.41.32-2h1l-.17,1.33h0a3,3,0,0,1,2.51-1.48,1.67,1.67,0,0,1,1.72,1.89,6.51,6.51,0,0,1-.13,1.09l-.76,4h-1.16l.74-3.91a4.45,4.45,0,0,0,.1-.87c0-.69-.27-1.19-1.06-1.19s-2,1-2.31,2.68L190,24.1Z"/><path class="cls-2" d="M196.36,25.64a3.6,3.6,0,0,0,1.79.45c1.13,0,2-.59,2.44-2.42l.22-1h0a2.7,2.7,0,0,1-2.35,1.44,2.14,2.14,0,0,1-2.06-2.35,4.42,4.42,0,0,1,4.3-4.58,5.52,5.52,0,0,1,2.17.48l-1,5.6a5.05,5.05,0,0,1-1.37,3,3.58,3.58,0,0,1-2.37.76,4,4,0,0,1-2-.48Zm5.2-7.31a2.83,2.83,0,0,0-1.12-.22c-1.69,0-2.86,1.76-2.87,3.45,0,.74.27,1.63,1.3,1.63s2-1.26,2.25-2.59Z"/><path class="cls-2" d="M208.51,23.71a4.68,4.68,0,0,1-2.24.53,2.44,2.44,0,0,1-2.58-2.72c0-2,1.51-4.36,3.7-4.36a1.76,1.76,0,0,1,2,1.74c0,1.78-2,2.26-4.51,2.21A2.82,2.82,0,0,0,205,22.4a1.54,1.54,0,0,0,1.51.91,3.78,3.78,0,0,0,1.82-.48Zm-1.29-5.63c-1.11,0-1.93,1.08-2.21,2.14,1.82,0,3.25-.22,3.25-1.27C208.26,18.38,207.84,18.08,207.22,18.08Z"/><path class="cls-2" d="M215.55,15.5l-.35,1.82h1.63l-.18.91H215l-.63,3.29a6,6,0,0,0-.13,1.09.57.57,0,0,0,.64.64,3.23,3.23,0,0,0,.55,0l-.06.91a2.69,2.69,0,0,1-.9.13,1.26,1.26,0,0,1-1.43-1.32,6.31,6.31,0,0,1,.14-1.27l.67-3.43h-1l.18-.91h1l.29-1.53Z"/><path class="cls-2" d="M216.9,24.1l1.89-9.95h1.16l-.84,4.37h0a2.91,2.91,0,0,1,2.42-1.36A1.64,1.64,0,0,1,223.24,19a6.23,6.23,0,0,1-.11,1.15l-.76,4h-1.16l.76-3.91a5.53,5.53,0,0,0,.08-.94A1,1,0,0,0,221,18.13c-.9,0-2,1.05-2.31,2.58l-.63,3.39Z"/><path class="cls-2" d="M229.26,23.71a4.68,4.68,0,0,1-2.24.53,2.44,2.44,0,0,1-2.58-2.72c0-2,1.51-4.36,3.7-4.36a1.76,1.76,0,0,1,2,1.74c0,1.78-2,2.26-4.51,2.21a2.82,2.82,0,0,0,.14,1.29,1.54,1.54,0,0,0,1.51.91,3.78,3.78,0,0,0,1.82-.48ZM228,18.08c-1.11,0-1.93,1.08-2.21,2.14,1.82,0,3.25-.22,3.25-1.27C229,18.38,228.59,18.08,228,18.08Z"/><path class="cls-2" d="M230.71,24.1l.91-4.8c.14-.76.24-1.41.31-2h1l-.18,1.27h0a2.9,2.9,0,0,1,2.38-1.43,1.47,1.47,0,0,1,1.58,1.51,2.91,2.91,0,0,1,2.49-1.51,1.61,1.61,0,0,1,1.64,1.78,6.88,6.88,0,0,1-.11,1.15l-.76,4h-1.13l.73-3.91a4.5,4.5,0,0,0,.1-.88c0-.71-.27-1.18-1-1.18s-1.83,1-2.12,2.49l-.66,3.47h-1.12l.76-4a4.31,4.31,0,0,0,.08-.83c0-.57-.15-1.16-1-1.16s-1.9,1.12-2.17,2.56l-.63,3.4Z"/><path class="cls-2" d="M246.91,23.71a4.68,4.68,0,0,1-2.24.53,2.44,2.44,0,0,1-2.58-2.72c0-2,1.51-4.36,3.7-4.36a1.76,1.76,0,0,1,2,1.74c0,1.78-2,2.26-4.51,2.21a2.82,2.82,0,0,0,.14,1.29,1.54,1.54,0,0,0,1.51.91,3.78,3.78,0,0,0,1.82-.48Zm-1.29-5.63c-1.11,0-1.93,1.08-2.21,2.14,1.82,0,3.25-.22,3.25-1.27C246.66,18.38,246.24,18.08,245.63,18.08Z"/><path class="cls-1" d="M254.29,25.15l-.14.7h-7l.14-.7Z"/><path class="cls-1" d="M260.83,23.85a4.55,4.55,0,0,1-1.95.39,3.22,3.22,0,0,1-3.38-3.46,3.44,3.44,0,0,1,3.64-3.6,4.11,4.11,0,0,1,1.71.35l-.28,1a2.86,2.86,0,0,0-1.43-.32,2.35,2.35,0,0,0-2.39,2.56,2.32,2.32,0,0,0,2.35,2.54,3.5,3.5,0,0,0,1.51-.34Z"/><path class="cls-1" d="M262.27,14.15h1.23V24.1h-1.23Z"/><path class="cls-1" d="M266.95,15.42a.76.76,0,0,1-1.53,0,.75.75,0,0,1,.77-.77A.73.73,0,0,1,266.95,15.42Zm-1.37,8.68V17.32h1.23V24.1Z"/><path class="cls-1" d="M273.68,23.85a4.55,4.55,0,0,1-1.95.39,3.22,3.22,0,0,1-3.38-3.46,3.44,3.44,0,0,1,3.64-3.6,4.11,4.11,0,0,1,1.71.35l-.28,1a2.86,2.86,0,0,0-1.43-.32,2.35,2.35,0,0,0-2.39,2.56A2.32,2.32,0,0,0,272,23.26a3.5,3.5,0,0,0,1.51-.34Z"/><path class="cls-1" d="M276.34,20.43h0c.17-.24.41-.53.6-.77l2-2.34h1.49l-2.62,2.79,3,4h-1.5L277,20.85l-.63.7V24.1h-1.22V14.15h1.22Z"/><path class="cls-1" d="M290.79,20.65a3.31,3.31,0,0,1-3.38,3.6,3.22,3.22,0,0,1-3.25-3.49,3.31,3.31,0,0,1,3.36-3.6A3.21,3.21,0,0,1,290.79,20.65Zm-5.38.07c0,1.48.85,2.61,2.06,2.61s2.06-1.11,2.06-2.63c0-1.15-.57-2.61-2-2.61S285.41,19.44,285.41,20.72Z"/><path class="cls-1" d="M292.34,19.15c0-.7,0-1.27-.06-1.83h1.09l.07,1.12h0a2.49,2.49,0,0,1,2.24-1.27c.94,0,2.4.56,2.4,2.89v4h-1.23V20.19c0-1.09-.41-2-1.57-2a1.75,1.75,0,0,0-1.65,1.26,1.78,1.78,0,0,0-.08.57V24.1h-1.23Z"/><path class="cls-1" d="M303.08,14.15h1.23V24.1h-1.23Z"/><path class="cls-1" d="M312.52,20.65a3.31,3.31,0,0,1-3.38,3.6,3.22,3.22,0,0,1-3.25-3.49,3.31,3.31,0,0,1,3.36-3.6A3.21,3.21,0,0,1,312.52,20.65Zm-5.38.07c0,1.48.85,2.61,2.06,2.61s2.06-1.11,2.06-2.63c0-1.15-.57-2.61-2-2.61S307.14,19.44,307.14,20.72Z"/><path class="cls-1" d="M319.91,17.32c0,.49-.06,1-.06,1.86v3.94c0,1.55-.31,2.51-1,3.1a3.59,3.59,0,0,1-2.46.81,4.38,4.38,0,0,1-2.26-.56l.31-.94a3.82,3.82,0,0,0,2,.53c1.26,0,2.18-.66,2.18-2.37v-.76h0a2.42,2.42,0,0,1-2.16,1.13,3,3,0,0,1-2.89-3.31c0-2.3,1.5-3.6,3.05-3.6a2.25,2.25,0,0,1,2.12,1.18h0l.06-1ZM318.63,20a1.74,1.74,0,0,0-.07-.56,1.77,1.77,0,0,0-1.72-1.3c-1.18,0-2,1-2,2.56,0,1.33.67,2.44,2,2.44a1.8,1.8,0,0,0,1.71-1.26,2.17,2.17,0,0,0,.1-.66Z"/><path class="cls-1" d="M328,20.65a3.31,3.31,0,0,1-3.38,3.6,3.22,3.22,0,0,1-3.25-3.49,3.31,3.31,0,0,1,3.36-3.6A3.21,3.21,0,0,1,328,20.65Zm-5.38.07c0,1.48.85,2.61,2.06,2.61s2.06-1.11,2.06-2.63c0-1.15-.57-2.61-2-2.61S322.65,19.44,322.65,20.72Z"/><path class="cls-1" d="M334,15.37v1.95h1.76v.94H334v3.66c0,.84.24,1.32.92,1.32a2.75,2.75,0,0,0,.71-.08l.06.92a3,3,0,0,1-1.09.17,1.71,1.71,0,0,1-1.33-.52,2.51,2.51,0,0,1-.48-1.76v-3.7h-1.05v-.94h1.05V15.7Z"/><path class="cls-1" d="M343.23,20.65a3.31,3.31,0,0,1-3.38,3.6,3.22,3.22,0,0,1-3.25-3.49,3.31,3.31,0,0,1,3.36-3.6A3.21,3.21,0,0,1,343.23,20.65Zm-5.38.07c0,1.48.85,2.61,2.06,2.61S342,22.22,342,20.7c0-1.15-.57-2.61-2-2.61S337.85,19.44,337.85,20.72Z"/><path class="cls-1" d="M347.58,22.84a3.23,3.23,0,0,0,1.63.49c.9,0,1.32-.45,1.32-1s-.35-.91-1.26-1.25c-1.22-.43-1.79-1.11-1.79-1.92a2.09,2.09,0,0,1,2.34-2,3.39,3.39,0,0,1,1.67.42l-.31.9a2.64,2.64,0,0,0-1.39-.39c-.73,0-1.13.42-1.13.92s.41.81,1.29,1.15c1.18.45,1.78,1,1.78,2,0,1.19-.92,2-2.54,2a3.87,3.87,0,0,1-1.91-.46Z"/><path class="cls-1" d="M354,20.93a2.17,2.17,0,0,0,2.33,2.35,4.45,4.45,0,0,0,1.88-.35l.21.88a5.48,5.48,0,0,1-2.25.42,3.15,3.15,0,0,1-3.33-3.42c0-2,1.21-3.66,3.18-3.66,2.21,0,2.8,1.95,2.8,3.19a4.73,4.73,0,0,1,0,.57Zm3.61-.88a1.76,1.76,0,0,0-1.71-2,2,2,0,0,0-1.89,2Z"/><path class="cls-1" d="M361,20.93a2.17,2.17,0,0,0,2.33,2.35,4.45,4.45,0,0,0,1.88-.35l.21.88a5.48,5.48,0,0,1-2.25.42,3.15,3.15,0,0,1-3.33-3.42c0-2,1.21-3.66,3.18-3.66,2.21,0,2.8,1.95,2.8,3.19a4.73,4.73,0,0,1,0,.57Zm3.61-.88a1.76,1.76,0,0,0-1.71-2,2,2,0,0,0-1.89,2Z"/><path class="cls-1" d="M371.66,15.42a.76.76,0,0,1-1.53,0,.75.75,0,0,1,.77-.77A.73.73,0,0,1,371.66,15.42Zm-1.37,8.68V17.32h1.23V24.1Z"/><path class="cls-1" d="M373.57,19.15c0-.7,0-1.27-.06-1.83h1.09l.07,1.12h0a2.49,2.49,0,0,1,2.24-1.27c.94,0,2.4.56,2.4,2.89v4H378.1V20.19c0-1.09-.41-2-1.57-2a1.75,1.75,0,0,0-1.65,1.26,1.78,1.78,0,0,0-.08.57V24.1h-1.23Z"/><path class="cls-1" d="M381.46,24.1V18.26h-1v-.94h1V17a3.2,3.2,0,0,1,.78-2.37A2.36,2.36,0,0,1,383.9,14a2.86,2.86,0,0,1,1.05.2l-.17,1A1.85,1.85,0,0,0,384,15c-1,0-1.32.92-1.32,2v.36h1.64v.94h-1.64V24.1Z"/><path class="cls-1" d="M391.38,20.65a3.31,3.31,0,0,1-3.38,3.6,3.22,3.22,0,0,1-3.25-3.49,3.31,3.31,0,0,1,3.36-3.6A3.21,3.21,0,0,1,391.38,20.65Zm-5.38.07c0,1.48.85,2.61,2.06,2.61s2.06-1.11,2.06-2.63c0-1.15-.57-2.61-2-2.61S386,19.44,386,20.72Z"/><path class="cls-1" d="M402,20.65a3.31,3.31,0,0,1-3.38,3.6,3.22,3.22,0,0,1-3.25-3.49,3.31,3.31,0,0,1,3.36-3.6A3.21,3.21,0,0,1,402,20.65Zm-5.38.07c0,1.48.85,2.61,2.06,2.61s2.06-1.11,2.06-2.63c0-1.15-.57-2.61-2-2.61S396.65,19.44,396.65,20.72Z"/><path class="cls-1" d="M403.58,19.44c0-.8,0-1.48-.06-2.12h1.08l0,1.33h.06a2,2,0,0,1,1.88-1.48,1.32,1.32,0,0,1,.35,0v1.16a1.83,1.83,0,0,0-.42,0,1.73,1.73,0,0,0-1.65,1.58,3.55,3.55,0,0,0-.06.57V24.1h-1.22Z"/><path class="cls-1" d="M412.61,15.37v1.95h1.76v.94h-1.76v3.66c0,.84.24,1.32.92,1.32a2.75,2.75,0,0,0,.71-.08l.06.92a3,3,0,0,1-1.09.17,1.71,1.71,0,0,1-1.33-.52,2.51,2.51,0,0,1-.48-1.76v-3.7h-1.05v-.94h1.05V15.7Z"/><path class="cls-1" d="M421.81,20.65a3.31,3.31,0,0,1-3.38,3.6,3.22,3.22,0,0,1-3.25-3.49,3.31,3.31,0,0,1,3.36-3.6A3.21,3.21,0,0,1,421.81,20.65Zm-5.38.07c0,1.48.85,2.61,2.06,2.61s2.06-1.11,2.06-2.63c0-1.15-.57-2.61-2-2.61S416.43,19.44,416.43,20.72Z"/><path class="cls-1" d="M431.16,23.85a4.55,4.55,0,0,1-1.95.39,3.22,3.22,0,0,1-3.38-3.46,3.44,3.44,0,0,1,3.64-3.6,4.11,4.11,0,0,1,1.71.35l-.28,1a2.86,2.86,0,0,0-1.43-.32,2.35,2.35,0,0,0-2.39,2.56,2.32,2.32,0,0,0,2.35,2.54,3.5,3.5,0,0,0,1.51-.34Z"/><path class="cls-1" d="M432.6,14.15h1.23v4.23h0a2.28,2.28,0,0,1,.88-.87,2.54,2.54,0,0,1,1.26-.35c.91,0,2.37.56,2.37,2.9v4h-1.23V20.21c0-1.09-.41-2-1.57-2a1.77,1.77,0,0,0-1.65,1.23,1.51,1.51,0,0,0-.08.59V24.1H432.6Z"/><path class="cls-1" d="M444.13,24.1l-.1-.85h0a2.53,2.53,0,0,1-2.07,1,1.93,1.93,0,0,1-2.07-1.95c0-1.64,1.46-2.54,4.08-2.52v-.14a1.4,1.4,0,0,0-1.54-1.57,3.38,3.38,0,0,0-1.76.5l-.28-.81a4.21,4.21,0,0,1,2.23-.6c2.07,0,2.58,1.41,2.58,2.77v2.54a9.55,9.55,0,0,0,.11,1.63Zm-.18-3.46c-1.34,0-2.87.21-2.87,1.53a1.09,1.09,0,0,0,1.16,1.18,1.69,1.69,0,0,0,1.64-1.13,1.29,1.29,0,0,0,.07-.39Z"/><path class="cls-1" d="M447.12,19.15c0-.7,0-1.27-.06-1.83h1.09l.07,1.12h0a2.49,2.49,0,0,1,2.24-1.27c.94,0,2.4.56,2.4,2.89v4h-1.23V20.19c0-1.09-.41-2-1.57-2a1.75,1.75,0,0,0-1.65,1.26,1.78,1.78,0,0,0-.08.57V24.1h-1.23Z"/><path class="cls-1" d="M460.73,17.32c0,.49-.06,1-.06,1.86v3.94c0,1.55-.31,2.51-1,3.1a3.59,3.59,0,0,1-2.46.81,4.37,4.37,0,0,1-2.25-.56l.31-.94a3.82,3.82,0,0,0,2,.53c1.26,0,2.19-.66,2.19-2.37v-.76h0a2.42,2.42,0,0,1-2.16,1.13,3,3,0,0,1-2.89-3.31c0-2.3,1.5-3.6,3.05-3.6a2.25,2.25,0,0,1,2.12,1.18h0l.06-1ZM459.46,20a1.74,1.74,0,0,0-.07-.56,1.77,1.77,0,0,0-1.72-1.3c-1.18,0-2,1-2,2.56,0,1.33.67,2.44,2,2.44a1.8,1.8,0,0,0,1.71-1.26,2.17,2.17,0,0,0,.1-.66Z"/><path class="cls-1" d="M463.4,20.93a2.17,2.17,0,0,0,2.33,2.35,4.45,4.45,0,0,0,1.88-.35l.21.88a5.48,5.48,0,0,1-2.25.42,3.15,3.15,0,0,1-3.33-3.42c0-2,1.21-3.66,3.18-3.66,2.21,0,2.8,1.95,2.8,3.19a4.73,4.73,0,0,1,0,.57Zm3.61-.88a1.76,1.76,0,0,0-1.71-2,2,2,0,0,0-1.89,2Z"/><path class="cls-1" d="M474.18,15.37v1.95h1.76v.94h-1.76v3.66c0,.84.24,1.32.92,1.32a2.75,2.75,0,0,0,.71-.08l.06.92a3,3,0,0,1-1.09.17,1.71,1.71,0,0,1-1.33-.52A2.51,2.51,0,0,1,473,22v-3.7h-1.05v-.94H473V15.7Z"/><path class="cls-1" d="M477.33,14.15h1.23v4.23h0a2.28,2.28,0,0,1,.88-.87,2.54,2.54,0,0,1,1.26-.35c.91,0,2.37.56,2.37,2.9v4h-1.23V20.21c0-1.09-.41-2-1.57-2a1.77,1.77,0,0,0-1.65,1.23,1.51,1.51,0,0,0-.08.59V24.1h-1.23Z"/><path class="cls-1" d="M485.79,20.93a2.17,2.17,0,0,0,2.33,2.35,4.45,4.45,0,0,0,1.88-.35l.21.88a5.48,5.48,0,0,1-2.25.42,3.15,3.15,0,0,1-3.33-3.42c0-2,1.21-3.66,3.18-3.66,2.21,0,2.8,1.95,2.8,3.19a4.73,4.73,0,0,1,0,.57Zm3.61-.88a1.76,1.76,0,0,0-1.71-2,2,2,0,0,0-1.89,2Z"/><path class="cls-1" d="M492.11,19.15c0-.7,0-1.27-.06-1.83h1.08l.06,1.09h0a2.34,2.34,0,0,1,2.13-1.25,2,2,0,0,1,1.92,1.36h0a2.79,2.79,0,0,1,.76-.88,2.31,2.31,0,0,1,1.5-.48c.9,0,2.23.59,2.23,2.94v4h-1.21V20.26c0-1.3-.48-2.09-1.47-2.09a1.6,1.6,0,0,0-1.46,1.12,2,2,0,0,0-.1.62V24.1h-1.21V20c0-1.08-.48-1.86-1.41-1.86A1.84,1.84,0,0,0,493.32,20V24.1h-1.21Z"/><path class="cls-1" d="M504.48,20.93a2.17,2.17,0,0,0,2.33,2.35,4.45,4.45,0,0,0,1.88-.35l.21.88a5.48,5.48,0,0,1-2.25.42,3.15,3.15,0,0,1-3.33-3.42c0-2,1.21-3.66,3.18-3.66,2.21,0,2.8,1.95,2.8,3.19a4.73,4.73,0,0,1,0,.57Zm3.61-.88a1.76,1.76,0,0,0-1.71-2,2,2,0,0,0-1.89,2Z"/></g></g></svg>