<svg xmlns="http://www.w3.org/2000/svg" viewBox="0 0 669 577"><defs><style>.cls-1{fill:#a0a0a0;}</style></defs><title>Asset 1</title><g id="Layer_2" data-name="Layer 2"><g id="Layer_2-2" data-name="Layer 2"><path class="cls-1" d="M332,0h2a10.41,10.41,0,0,1,1.36,1.46q23.75,37.73,47.46,75.48c2,3.18.87,4.53-2.7,4.42-2.33-.07-4.67.12-7,0-4.24-.24-3.92,1.49-2.22,4.37,9.63,16.3,19.11,32.68,28.8,48.94,2.05,3.45.81,5-2.46,5.39-4,.42-8,.27-12,.32-5.75.07-5.91.28-2.87,5.35q12.54,20.94,25.17,41.83c5.3,8.82,10.65,17.62,15.84,26.51,2.51,4.3,2,5.21-2.79,5.27-6.48.08-12.88,1.64-19.39,1-4-.37-4.17,1.3-2.43,4.31q10.84,18.76,21.56,37.59c10.06,17.58,20,35.23,30.24,52.72,2,3.45.86,4.49-2.28,4.78-6.93.64-13.87,1.2-20.82,1.56-3.16.16-4,1.19-2.32,3.94Q439.05,348,453,370.73c1.27,2.06,2.63,3,4.29.11,1.41-2.44,3.19-4.66,4.8-7q17.53-25.12,35-50.27c.69-1,2.13-2.12,1.19-3.5s-2.46-.69-3.74-.7c-5.83-.05-11.67,0-17.5,0-5-.05-5.57-1.06-2.86-5.45q18.71-30.3,37.47-60.58c2.83-4.56,2.53-5.31-3-5.87-4.45-.45-8.91.14-13.41-.86-3.65-.81-3.4-1.92-1.82-4.56,7.53-12.52,14.94-25.12,22.35-37.71,1.92-3.26,5.93-7.5,5-9.69-1.22-3-6.66-2.1-10.39-2.36-2.47-.17-2.78-1.37-1.5-3.29.64-1,1.24-2,1.88-2.94q9.64-14.54,19.29-29.07c1-1.53,2.84-3.06-.85-3.62-6-.92-6.16-1.35-2.92-6.69,1-1.7,2-3.45,3-5.19,8-14.36,16-28.7,23.94-43.11,1.86-3.39,2.92-4.33,5.41-.24,9.93,16.31,20.2,32.41,30.28,48.63,3.1,5,2.89,5.53-2.81,5.55-4.28,0-4.51,1.56-2.63,4.74,5.83,9.86,11.6,19.76,17.41,29.63,3.07,5.2,3,5.29-3.21,5.75-2,.14-3.91.74-5.89.91-2.68.23-2.58,1.3-1.36,3.21,2,3.07,3.75,6.27,5.64,9.39Q607,214.05,618,232.18c2.48,4.13,1.94,5.12-2.84,5.16-3.34,0-6.61.57-9.9.83-4.56.35-4.42,1.47-2.33,5,11.21,19.22,22,38.66,33.25,57.88,2.41,4.14,1.25,5.18-2.87,5.84-3.17.51-6.31.18-9.45.49-3.3.32-5.65.8-2.77,5.07,4.92,7.29,9.27,15,13.9,22.44q17,27.55,34,55.07v2c-1.82.12-3.64.3-5.47.36-26,.78-51.89-1.48-77.85-1-7.29.13-7.31,0-7.31,7.16,0,36.14-.09,72.29.09,108.43,0,5-1.5,6.69-6.54,6.52-10.15-.33-20.32-.09-30.48-.1-7.8,0-7.81,0-7.82-8,0-35.64-.07-71.29.07-106.93,0-4.54-1.37-6.16-6-6.11-18.65.2-37.31.12-56,.05-3.37,0-5.42.27-2.9,4.28q12.56,20,24.88,40.22c1.24,2,3.87,4.3,2.71,6.52s-3.93-.46-6,0a4.44,4.44,0,0,1-1,0c-38.94-.41-77.89.89-116.83-1-7.18-.34-7.21,0-7.21,7.19q0,60,0,119.92c0,2.49-.23,5-.35,7.47H301c-.12-2.49-.35-5-.35-7.47q0-59,0-118c0-7.14,0-7.16-7.3-7.16q-58.5,0-117,0c-1.71,0-4,.82-4.95-1.22-.72-1.6.77-3.08,1.72-4.43,6.08-8.71,12.22-17.39,18.22-26.16,1.82-2.67,5.84-5.83,4.53-8.14s-6.21-2-9.7-2q-22.5,0-45,0c-6.64,0-6.77.13-6.77,6.68q0,43.25,0,86.5c0,6.75,0,6.78-6.55,6.8q-16.25,0-32.5,0c-6.62,0-6.66,0-6.67-6.68q0-42.75,0-85.5c0-6.67-.12-6.8-6.66-6.8q-33.5,0-67,0c-5,0-10-.23-15-.35v-3c5.76-8.13,11.57-16.21,17.26-24.38,12-17.16,23.8-34.41,35.83-51.52,2.57-3.66.62-3.75-2.26-3.73-5,0-10,.08-15,0-2.45-.05-5.88,1.13-7.09-.88-1.39-2.33,1.43-4.75,2.75-6.91,12.11-19.84,24.25-39.66,36.59-59.36,2.35-3.75,1.21-4.72-2.48-4.79-4.48-.08-8.93-.36-13.41-.84-5.09-.54-4.4-2.22-2.41-5.56,8.61-14.39,16.94-29,25.65-43.28,2.22-3.65.93-4.7-2.4-5.24-1.14-.18-2.33,0-3.49-.13-1.75-.18-4.07.76-5.07-1s.78-3.36,1.78-4.84Q76.6,172.21,87,157c.62-.91,2-1.61,1.13-3-.62-.93-1.81-.61-2.78-.65s-1.67,0-2.5,0c-5.24-.13-5.81-.93-3.2-5.36q14.29-24.24,28.8-48.36c2.71-4.51,3.41-4.41,6.41-.06.47.68,1,1.34,1.42,2q14.08,22.62,28.14,45.26c1,1.65,3.1,3.29,2.19,5.26-1,2.12-3.59,1.25-5.44,1.16-4.14-.21-3.46,1.54-2,4,5.26,9,10.38,18.17,15.7,27.17,5,8.39,5.05,8.34-4.43,8.88-5.35.31-5.83,1.33-3,6,8.81,14.66,17.49,29.39,26.38,44,2.34,3.85,1.19,5-2.84,5a93.54,93.54,0,0,0-10.48.25c-2.28.25-4.21,1.2-2.37,4.32,5.56,9.44,11,19,16.41,28.48q8.92,15.56,17.8,31.13c1.64,2.87,1.92,4.61-2.5,5-3.8.34-7.58.81-11.4.84-2.74,0-3.78,1.06-2.15,3.71q17.19,28,34.34,56.06c1.53,2.5,3,2.86,4.78.23q17.23-25,34.5-50c.64-.92,1.95-1.76,1.46-3-.64-1.6-2.31-1-3.55-1-10.5-.05-21,0-31.49-.07-4.61,0-5.08-1-2.66-4.9q15.28-24.81,30.62-49.59l28.28-45.76c1.2-1.94,2.12-3.54-1.55-3.76-8.44-.5-16.86-1.36-25.29-1.94-5.08-.35-5.6-1-2.94-5.56,6.55-11.17,13.22-22.27,19.84-33.4,7-11.7,13.9-23.42,20.91-35.09,1.8-3,1.23-4.14-2.33-4-3.83.15-7.67.17-11.49,0-5.77-.32-6.51-1.79-3.41-6.46,6.71-10.1,13.5-20.15,20.17-30.28,4.43-6.73,8.72-13.57,13.53-21.07-4,0-7.11-.45-10.22.54-1.58.5-3.67.92-4.74-.38-1.21-1.46.3-3.14,1.1-4.51,5.34-9.18,10.76-18.33,16.15-27.48Z"/></g></g></svg>