<?xml version="1.0" encoding="utf-8"?>
<!-- Generator: Adobe Illustrator 21.1.0, SVG Export Plug-In . SVG Version: 6.00 Build 0)  -->
<svg version="1.1" id="Layer_1" xmlns="http://www.w3.org/2000/svg" xmlns:xlink="http://www.w3.org/1999/xlink" x="0px" y="0px"
	 viewBox="0 0 32 32" style="enable-background:new 0 0 32 32;" xml:space="preserve">
<style type="text/css">
	.st0{fill:#FAFAFD;}
	.st1{fill:#E5E8F6;}
	.st2{fill:#B9C1E1;}
</style>
<circle class="st0" cx="16" cy="16" r="16"/>
<circle class="st1" cx="16" cy="16" r="14.2"/>
<g id="Layer_2">
	<g id="Layer_1-2">
		<path class="st2" d="M21.4,20.8c0.5,0.5,0.7,1,0.7,1.4s-0.3,0.8-0.9,1.3c-0.6,0.5-1,0.7-1.4,0.7c-0.4,0-0.8-0.3-1.3-0.9l-4.7-5.4
			v4.3c0,0.3,0,0.5,0,0.8c0,0.2-0.1,0.4-0.2,0.6c-0.2,0.4-0.8,0.6-1.7,0.6c-1,0-1.6-0.3-1.8-0.8c-0.1-0.2-0.1-0.6-0.1-1.1V9.8
			c0-0.3,0-0.5,0-0.8c0-0.2,0.1-0.4,0.2-0.6c0.2-0.4,0.8-0.6,1.7-0.6c1,0,1.7,0.3,1.8,0.8c0.1,0.4,0.1,0.8,0.1,1.2v4.3l0,0v0
			c1.9-2.2,3.5-4,4.7-5.4c0.5-0.6,0.9-0.9,1.3-0.9s0.9,0.2,1.4,0.7c0.6,0.5,0.9,0.9,0.9,1.3c0,0.4-0.2,0.8-0.6,1.3
			c-0.8,1-2.1,2.3-3.9,4L16.7,16C18.9,18.1,20.5,19.7,21.4,20.8z"/>
	</g>
</g>
</svg>
