<?xml version="1.0" encoding="utf-8"?>
<!-- Generator: Adobe Illustrator 21.1.0, SVG Export Plug-In . SVG Version: 6.00 Build 0)  -->
<svg version="1.1" id="Layer_1" xmlns="http://www.w3.org/2000/svg" xmlns:xlink="http://www.w3.org/1999/xlink" x="0px" y="0px"
	 viewBox="0 0 358.6 27.9" style="enable-background:new 0 0 358.6 27.9;" xml:space="preserve">
<style type="text/css">
	.st0{fill:#B8C1E1;}
	.st1{fill:#6D85F0;}
</style>
<path class="st0" d="M7.8,11.2v0.7h-7v-0.7H7.8z"/>
<path class="st0" d="M13.7,9.8c-0.3,0.2-1,0.4-1.9,0.4c-2,0-3.4-1.4-3.4-3.5c0-2.1,1.4-3.6,3.6-3.6c0.7,0,1.4,0.2,1.7,0.4l-0.3,1
	c-0.3-0.2-0.8-0.3-1.4-0.3c-1.6,0-2.4,1.1-2.4,2.6c0,1.6,1,2.5,2.4,2.5c0.7,0,1.2-0.2,1.5-0.3L13.7,9.8z"/>
<path class="st0" d="M15.1,0.2h1.2v9.9h-1.2V0.2z"/>
<path class="st0" d="M19.8,1.4c0,0.4-0.3,0.8-0.8,0.8c-0.4,0-0.7-0.3-0.7-0.8c0-0.4,0.3-0.8,0.8-0.8C19.5,0.6,19.8,1,19.8,1.4z
	 M18.4,10.1V3.3h1.2v6.8H18.4z"/>
<path class="st0" d="M26.5,9.8c-0.3,0.2-1,0.4-1.9,0.4c-2,0-3.4-1.4-3.4-3.5c0-2.1,1.4-3.6,3.6-3.6c0.7,0,1.4,0.2,1.7,0.4l-0.3,1
	c-0.3-0.2-0.8-0.3-1.4-0.3c-1.6,0-2.4,1.1-2.4,2.6c0,1.6,1,2.5,2.4,2.5c0.7,0,1.2-0.2,1.5-0.3L26.5,9.8z"/>
<path class="st0" d="M29.2,6.4L29.2,6.4c0.2-0.2,0.4-0.5,0.6-0.8l2-2.3h1.5l-2.6,2.8l3,4h-1.5l-2.3-3.3l-0.6,0.7v2.5H28V0.2h1.2V6.4
	z"/>
<path class="st0" d="M43.6,6.7c0,2.5-1.7,3.6-3.4,3.6c-1.8,0-3.3-1.3-3.3-3.5c0-2.3,1.5-3.6,3.4-3.6C42.3,3.2,43.6,4.6,43.6,6.7z
	 M38.3,6.7c0,1.5,0.9,2.6,2.1,2.6c1.2,0,2.1-1.1,2.1-2.6c0-1.1-0.6-2.6-2-2.6C38.9,4.1,38.3,5.4,38.3,6.7z"/>
<path class="st0" d="M45.2,5.2c0-0.7,0-1.3-0.1-1.8h1.1l0.1,1.1h0c0.3-0.6,1.1-1.3,2.2-1.3c0.9,0,2.4,0.6,2.4,2.9v4h-1.2V6.2
	c0-1.1-0.4-2-1.6-2c-0.8,0-1.4,0.6-1.7,1.3c-0.1,0.2-0.1,0.4-0.1,0.6v4.1h-1.2V5.2z"/>
<path class="st0" d="M55.9,0.2h1.2v9.9h-1.2V0.2z"/>
<path class="st0" d="M65.4,6.7c0,2.5-1.7,3.6-3.4,3.6c-1.8,0-3.3-1.3-3.3-3.5c0-2.3,1.5-3.6,3.4-3.6C64.1,3.2,65.4,4.6,65.4,6.7z
	 M60,6.7c0,1.5,0.9,2.6,2.1,2.6c1.2,0,2.1-1.1,2.1-2.6c0-1.1-0.6-2.6-2-2.6C60.6,4.1,60,5.4,60,6.7z"/>
<path class="st0" d="M72.8,3.3c0,0.5-0.1,1-0.1,1.9v3.9c0,1.6-0.3,2.5-1,3.1c-0.7,0.6-1.6,0.8-2.5,0.8c-0.8,0-1.7-0.2-2.3-0.6
	l0.3-0.9c0.4,0.3,1.1,0.5,2,0.5c1.3,0,2.2-0.7,2.2-2.4V8.9h0c-0.4,0.6-1.1,1.1-2.2,1.1c-1.7,0-2.9-1.4-2.9-3.3
	c0-2.3,1.5-3.6,3.1-3.6c1.2,0,1.8,0.6,2.1,1.2h0l0.1-1H72.8z M71.5,6c0-0.2,0-0.4-0.1-0.6c-0.2-0.7-0.8-1.3-1.7-1.3
	c-1.2,0-2,1-2,2.6c0,1.3,0.7,2.4,2,2.4c0.8,0,1.4-0.5,1.7-1.3c0.1-0.2,0.1-0.4,0.1-0.7V6z"/>
<path class="st0" d="M80.9,6.7c0,2.5-1.7,3.6-3.4,3.6c-1.8,0-3.3-1.3-3.3-3.5c0-2.3,1.5-3.6,3.4-3.6C79.6,3.2,80.9,4.6,80.9,6.7z
	 M75.5,6.7c0,1.5,0.9,2.6,2.1,2.6c1.2,0,2.1-1.1,2.1-2.6c0-1.1-0.6-2.6-2-2.6C76.1,4.1,75.5,5.4,75.5,6.7z"/>
<path class="st0" d="M87.5,1.4v1.9h1.8v0.9h-1.8v3.7c0,0.8,0.2,1.3,0.9,1.3c0.3,0,0.6,0,0.7-0.1l0.1,0.9c-0.2,0.1-0.6,0.2-1.1,0.2
	c-0.6,0-1-0.2-1.3-0.5c-0.4-0.4-0.5-1-0.5-1.8V4.3h-1.1V3.3h1.1V1.7L87.5,1.4z"/>
<path class="st0" d="M96.7,6.7c0,2.5-1.7,3.6-3.4,3.6c-1.8,0-3.3-1.3-3.3-3.5c0-2.3,1.5-3.6,3.4-3.6C95.3,3.2,96.7,4.6,96.7,6.7z
	 M91.3,6.7c0,1.5,0.9,2.6,2.1,2.6c1.2,0,2.1-1.1,2.1-2.6c0-1.1-0.6-2.6-2-2.6C91.9,4.1,91.3,5.4,91.3,6.7z"/>
<path class="st0" d="M106,9.8c-0.3,0.2-1,0.4-1.9,0.4c-2,0-3.4-1.4-3.4-3.5c0-2.1,1.4-3.6,3.6-3.6c0.7,0,1.4,0.2,1.7,0.4l-0.3,1
	c-0.3-0.2-0.8-0.3-1.4-0.3c-1.6,0-2.4,1.1-2.4,2.6c0,1.6,1,2.5,2.4,2.5c0.7,0,1.2-0.2,1.5-0.3L106,9.8z"/>
<path class="st0" d="M107.5,0.2h1.2v4.2h0c0.2-0.4,0.5-0.7,0.9-0.9c0.4-0.2,0.8-0.4,1.3-0.4c0.9,0,2.4,0.6,2.4,2.9v4H112V6.2
	c0-1.1-0.4-2-1.6-2c-0.8,0-1.4,0.6-1.7,1.2c-0.1,0.2-0.1,0.4-0.1,0.6v4.1h-1.2V0.2z"/>
<path class="st0" d="M119,10.1l-0.1-0.9h0c-0.4,0.5-1.1,1-2.1,1c-1.4,0-2.1-1-2.1-1.9c0-1.6,1.5-2.5,4.1-2.5V5.6
	c0-0.6-0.2-1.6-1.5-1.6c-0.6,0-1.3,0.2-1.8,0.5l-0.3-0.8c0.6-0.4,1.4-0.6,2.2-0.6c2.1,0,2.6,1.4,2.6,2.8v2.5c0,0.6,0,1.2,0.1,1.6
	H119z M118.8,6.6c-1.3,0-2.9,0.2-2.9,1.5c0,0.8,0.5,1.2,1.2,1.2c0.9,0,1.4-0.6,1.6-1.1c0-0.1,0.1-0.3,0.1-0.4V6.6z"/>
<path class="st0" d="M122,5.2c0-0.7,0-1.3-0.1-1.8h1.1l0.1,1.1h0c0.3-0.6,1.1-1.3,2.2-1.3c0.9,0,2.4,0.6,2.4,2.9v4h-1.2V6.2
	c0-1.1-0.4-2-1.6-2c-0.8,0-1.4,0.6-1.7,1.3c-0.1,0.2-0.1,0.4-0.1,0.6v4.1H122V5.2z"/>
<path class="st0" d="M135.6,3.3c0,0.5-0.1,1-0.1,1.9v3.9c0,1.6-0.3,2.5-1,3.1c-0.7,0.6-1.6,0.8-2.5,0.8c-0.8,0-1.7-0.2-2.3-0.6
	l0.3-0.9c0.4,0.3,1.1,0.5,2,0.5c1.3,0,2.2-0.7,2.2-2.4V8.9h0c-0.4,0.6-1.1,1.1-2.2,1.1c-1.7,0-2.9-1.4-2.9-3.3
	c0-2.3,1.5-3.6,3.1-3.6c1.2,0,1.8,0.6,2.1,1.2h0l0.1-1H135.6z M134.3,6c0-0.2,0-0.4-0.1-0.6c-0.2-0.7-0.8-1.3-1.7-1.3
	c-1.2,0-2,1-2,2.6c0,1.3,0.7,2.4,2,2.4c0.8,0,1.4-0.5,1.7-1.3c0.1-0.2,0.1-0.4,0.1-0.7V6z"/>
<path class="st0" d="M138.3,6.9c0,1.7,1.1,2.4,2.3,2.4c0.9,0,1.4-0.2,1.9-0.4l0.2,0.9c-0.4,0.2-1.2,0.4-2.3,0.4
	c-2.1,0-3.3-1.4-3.3-3.4c0-2,1.2-3.7,3.2-3.7c2.2,0,2.8,1.9,2.8,3.2c0,0.3,0,0.4,0,0.6H138.3z M141.9,6.1c0-0.8-0.3-2-1.7-2
	c-1.2,0-1.8,1.1-1.9,2H141.9z"/>
<path class="st0" d="M149,1.4v1.9h1.8v0.9H149v3.7c0,0.8,0.2,1.3,0.9,1.3c0.3,0,0.6,0,0.7-0.1l0.1,0.9c-0.2,0.1-0.6,0.2-1.1,0.2
	c-0.6,0-1-0.2-1.3-0.5c-0.4-0.4-0.5-1-0.5-1.8V4.3h-1.1V3.3h1.1V1.7L149,1.4z"/>
<path class="st0" d="M152.2,0.2h1.2v4.2h0c0.2-0.4,0.5-0.7,0.9-0.9c0.4-0.2,0.8-0.4,1.3-0.4c0.9,0,2.4,0.6,2.4,2.9v4h-1.2V6.2
	c0-1.1-0.4-2-1.6-2c-0.8,0-1.4,0.6-1.7,1.2c-0.1,0.2-0.1,0.4-0.1,0.6v4.1h-1.2V0.2z"/>
<path class="st0" d="M160.6,6.9c0,1.7,1.1,2.4,2.3,2.4c0.9,0,1.4-0.2,1.9-0.4l0.2,0.9c-0.4,0.2-1.2,0.4-2.3,0.4
	c-2.1,0-3.3-1.4-3.3-3.4c0-2,1.2-3.7,3.2-3.7c2.2,0,2.8,1.9,2.8,3.2c0,0.3,0,0.4,0,0.6H160.6z M164.3,6.1c0-0.8-0.3-2-1.7-2
	c-1.2,0-1.8,1.1-1.9,2H164.3z"/>
<path class="st0" d="M167,5.2c0-0.7,0-1.3-0.1-1.8h1.1l0.1,1.1h0c0.4-0.6,1-1.2,2.1-1.2c0.9,0,1.6,0.6,1.9,1.4h0
	c0.2-0.4,0.5-0.7,0.8-0.9c0.4-0.3,0.9-0.5,1.5-0.5c0.9,0,2.2,0.6,2.2,2.9v4h-1.2V6.3c0-1.3-0.5-2.1-1.5-2.1c-0.7,0-1.2,0.5-1.5,1.1
	c-0.1,0.2-0.1,0.4-0.1,0.6v4.2h-1.2V6c0-1.1-0.5-1.9-1.4-1.9c-0.8,0-1.3,0.6-1.5,1.2c-0.1,0.2-0.1,0.4-0.1,0.6v4.1H167V5.2z"/>
<path class="st0" d="M179.3,6.9c0,1.7,1.1,2.4,2.3,2.4c0.9,0,1.4-0.2,1.9-0.4l0.2,0.9c-0.4,0.2-1.2,0.4-2.3,0.4
	c-2.1,0-3.3-1.4-3.3-3.4c0-2,1.2-3.7,3.2-3.7c2.2,0,2.8,1.9,2.8,3.2c0,0.3,0,0.4,0,0.6H179.3z M182.9,6.1c0-0.8-0.3-2-1.7-2
	c-1.2,0-1.8,1.1-1.9,2H182.9z"/>
<path class="st1" d="M191.6,11.2v0.7h-7v-0.7H191.6z"/>
<path class="st1" d="M196.7,9.8c-0.3,0.2-1.1,0.4-2,0.4c-1.8,0-2.6-1.2-2.6-2.6c0-2.3,1.7-4.4,4.1-4.4c0.6,0,1.2,0.2,1.4,0.3
	l-0.3,0.9c-0.3-0.1-0.6-0.3-1.1-0.3c-1.8,0-2.9,1.7-2.9,3.3c0,1.1,0.6,1.8,1.7,1.8c0.7,0,1.2-0.2,1.6-0.4L196.7,9.8z"/>
<path class="st1" d="M198,10.1l1.9-9.9h1.2l-1.9,9.9H198z"/>
<path class="st1" d="M201.2,10.1l1.3-6.8h1.2l-1.3,6.8H201.2z M202.7,1.4c0-0.4,0.3-0.8,0.8-0.8c0.4,0,0.7,0.3,0.7,0.7
	c0,0.5-0.3,0.8-0.8,0.8C202.9,2.2,202.7,1.8,202.7,1.4z"/>
<path class="st1" d="M209,9.8c-0.3,0.2-1.1,0.4-2,0.4c-1.8,0-2.6-1.2-2.6-2.6c0-2.3,1.7-4.4,4.1-4.4c0.6,0,1.2,0.2,1.4,0.3l-0.3,0.9
	c-0.3-0.1-0.6-0.3-1.1-0.3c-1.8,0-2.9,1.7-2.9,3.3c0,1.1,0.6,1.8,1.7,1.8c0.7,0,1.2-0.2,1.6-0.4L209,9.8z"/>
<path class="st1" d="M210.3,10.1l1.9-9.9h1.2l-1.2,6.2h0c0.2-0.2,0.5-0.5,0.6-0.7l2.4-2.4h1.4l-3,2.8l2,4h-1.3l-1.6-3.3l-0.9,0.8
	l-0.5,2.6H210.3z"/>
<path class="st1" d="M225.7,6c0,2.1-1.5,4.3-3.8,4.3c-1.7,0-2.6-1.3-2.6-2.8c0-2.2,1.6-4.3,3.8-4.3C224.9,3.2,225.7,4.6,225.7,6z
	 M220.5,7.4c0,1.1,0.6,1.9,1.6,1.9c1.4,0,2.4-1.8,2.4-3.3c0-0.8-0.4-1.9-1.6-1.9C221.5,4.1,220.5,5.9,220.5,7.4z"/>
<path class="st1" d="M226.5,10.1l0.9-4.8c0.2-0.8,0.2-1.4,0.3-2h1l-0.2,1.3h0c0.6-1,1.5-1.5,2.5-1.5c0.8,0,1.7,0.5,1.7,1.9
	c0,0.3-0.1,0.7-0.1,1.1l-0.8,4h-1.2l0.7-3.9c0.1-0.3,0.1-0.6,0.1-0.9c0-0.7-0.3-1.2-1.1-1.2c-0.8,0-2,1-2.3,2.7l-0.6,3.3H226.5z"/>
<path class="st1" d="M236.6,10.1l1.9-9.9h1.2l-1.9,9.9H236.6z"/>
<path class="st1" d="M246.3,6c0,2.1-1.5,4.3-3.8,4.3c-1.7,0-2.6-1.3-2.6-2.8c0-2.2,1.6-4.3,3.8-4.3C245.4,3.2,246.3,4.6,246.3,6z
	 M241.1,7.4c0,1.1,0.6,1.9,1.6,1.9c1.4,0,2.4-1.8,2.4-3.3c0-0.8-0.4-1.9-1.6-1.9C242,4.1,241,5.9,241.1,7.4z"/>
<path class="st1" d="M247.2,11.6c0.4,0.3,1.1,0.4,1.8,0.4c1.1,0,2-0.6,2.4-2.4l0.2-1h0c-0.6,1-1.4,1.4-2.4,1.4
	c-1.4,0-2.1-1.1-2.1-2.4c0-2.3,1.7-4.6,4.3-4.6c0.8,0,1.6,0.2,2.2,0.5l-1,5.6c-0.3,1.4-0.7,2.4-1.4,3c-0.7,0.6-1.6,0.8-2.4,0.8
	c-0.8,0-1.6-0.2-2-0.5L247.2,11.6z M252.4,4.3c-0.2-0.1-0.6-0.2-1.1-0.2c-1.7,0-2.9,1.8-2.9,3.4c0,0.7,0.3,1.6,1.3,1.6
	c1,0,2-1.3,2.3-2.6L252.4,4.3z"/>
<path class="st1" d="M260.9,6c0,2.1-1.5,4.3-3.8,4.3c-1.7,0-2.6-1.3-2.6-2.8c0-2.2,1.6-4.3,3.8-4.3C260.1,3.2,260.9,4.6,260.9,6z
	 M255.7,7.4c0,1.1,0.6,1.9,1.6,1.9c1.4,0,2.4-1.8,2.4-3.3c0-0.8-0.4-1.9-1.6-1.9C256.7,4.1,255.7,5.9,255.7,7.4z"/>
<path class="st1" d="M267.8,1.5l-0.3,1.8h1.6l-0.2,0.9h-1.6l-0.6,3.3c-0.1,0.4-0.1,0.7-0.1,1.1c0,0.4,0.2,0.6,0.6,0.6
	c0.2,0,0.4,0,0.5,0l-0.1,0.9c-0.2,0.1-0.6,0.1-0.9,0.1c-1,0-1.4-0.6-1.4-1.3c0-0.4,0-0.8,0.1-1.3l0.7-3.4h-1l0.2-0.9h1l0.3-1.5
	L267.8,1.5z"/>
<path class="st1" d="M275.6,6c0,2.1-1.5,4.3-3.8,4.3c-1.7,0-2.6-1.3-2.6-2.8c0-2.2,1.6-4.3,3.8-4.3C274.7,3.2,275.6,4.6,275.6,6z
	 M270.4,7.4c0,1.1,0.6,1.9,1.6,1.9c1.4,0,2.4-1.8,2.4-3.3c0-0.8-0.4-1.9-1.6-1.9C271.3,4.1,270.3,5.9,270.4,7.4z"/>
<path class="st1" d="M283.6,9.8c-0.4,0.2-1.1,0.4-2,0.4c-1.8,0-2.6-1.2-2.6-2.6c0-2.3,1.7-4.4,4.1-4.4c0.6,0,1.2,0.2,1.4,0.3
	l-0.3,0.9c-0.3-0.1-0.6-0.3-1.1-0.3c-1.8,0-2.9,1.7-2.9,3.3c0,1.1,0.6,1.8,1.7,1.8c0.7,0,1.2-0.2,1.6-0.4L283.6,9.8z"/>
<path class="st1" d="M284.8,10.1l1.9-9.9h1.2L287,4.5h0c0.6-0.8,1.4-1.4,2.4-1.4c0.8,0,1.7,0.5,1.7,1.8c0,0.4,0,0.8-0.1,1.1l-0.8,4
	h-1.2l0.8-3.9c0-0.3,0.1-0.6,0.1-0.9c0-0.6-0.3-1.1-1.1-1.1c-0.9,0-2,1.1-2.3,2.6l-0.6,3.4H284.8z"/>
<path class="st1" d="M296.8,10.1c0-0.4,0.1-1.1,0.2-1.8h0c-0.7,1.4-1.7,1.9-2.6,1.9c-1.2,0-1.9-1-1.9-2.2c0-2.4,1.7-4.8,4.7-4.8
	c0.6,0,1.4,0.1,1.8,0.3L298.2,7c-0.2,1.2-0.3,2.4-0.3,3.1H296.8z M297.6,4.2c-0.2,0-0.4-0.1-0.8-0.1c-1.8,0-3.2,1.8-3.2,3.7
	c0,0.8,0.3,1.5,1.2,1.5c1,0,2.1-1.3,2.5-3.1L297.6,4.2z"/>
<path class="st1" d="M299.6,10.1l0.9-4.8c0.2-0.8,0.2-1.4,0.3-2h1l-0.2,1.3h0c0.6-1,1.5-1.5,2.5-1.5c0.8,0,1.7,0.5,1.7,1.9
	c0,0.3-0.1,0.7-0.1,1.1l-0.8,4h-1.2l0.7-3.9c0.1-0.3,0.1-0.6,0.1-0.9c0-0.7-0.3-1.2-1.1-1.2c-0.8,0-2,1-2.3,2.7l-0.6,3.3H299.6z"/>
<path class="st1" d="M307.2,11.6c0.4,0.3,1.1,0.4,1.8,0.4c1.1,0,2-0.6,2.4-2.4l0.2-1h0c-0.6,1-1.4,1.4-2.4,1.4
	c-1.4,0-2.1-1.1-2.1-2.4c0-2.3,1.7-4.6,4.3-4.6c0.8,0,1.6,0.2,2.2,0.5l-1,5.6c-0.3,1.4-0.7,2.4-1.4,3c-0.7,0.6-1.6,0.8-2.4,0.8
	c-0.8,0-1.6-0.2-2-0.5L307.2,11.6z M312.4,4.3c-0.2-0.1-0.6-0.2-1.1-0.2c-1.7,0-2.9,1.8-2.9,3.4c0,0.7,0.3,1.6,1.3,1.6
	c1,0,2-1.3,2.3-2.6L312.4,4.3z"/>
<path class="st1" d="M319.3,9.7c-0.5,0.3-1.3,0.5-2.2,0.5c-1.8,0-2.6-1.2-2.6-2.7c0-2,1.5-4.4,3.7-4.4c1.3,0,2,0.8,2,1.7
	c0,1.8-2,2.3-4.5,2.2c-0.1,0.3,0,0.9,0.1,1.3c0.3,0.6,0.8,0.9,1.5,0.9c0.8,0,1.4-0.3,1.8-0.5L319.3,9.7z M318,4.1
	c-1.1,0-1.9,1.1-2.2,2.1c1.8,0,3.2-0.2,3.2-1.3C319.1,4.4,318.6,4.1,318,4.1z"/>
<path class="st1" d="M326.4,1.5L326,3.3h1.6l-0.2,0.9h-1.6l-0.6,3.3c-0.1,0.4-0.1,0.7-0.1,1.1c0,0.4,0.2,0.6,0.6,0.6
	c0.2,0,0.4,0,0.5,0l-0.1,0.9c-0.2,0.1-0.6,0.1-0.9,0.1c-1,0-1.4-0.6-1.4-1.3c0-0.4,0-0.8,0.1-1.3l0.7-3.4h-1l0.2-0.9h1l0.3-1.5
	L326.4,1.5z"/>
<path class="st1" d="M327.7,10.1l1.9-9.9h1.2l-0.8,4.4h0c0.6-0.8,1.4-1.4,2.4-1.4c0.8,0,1.7,0.5,1.7,1.8c0,0.4,0,0.8-0.1,1.1l-0.8,4
	H332l0.8-3.9c0-0.3,0.1-0.6,0.1-0.9c0-0.6-0.3-1.1-1.1-1.1c-0.9,0-2,1.1-2.3,2.6l-0.6,3.4H327.7z"/>
<path class="st1" d="M340.1,9.7c-0.5,0.3-1.3,0.5-2.2,0.5c-1.8,0-2.6-1.2-2.6-2.7c0-2,1.5-4.4,3.7-4.4c1.3,0,2,0.8,2,1.7
	c0,1.8-2,2.3-4.5,2.2c-0.1,0.3,0,0.9,0.1,1.3c0.3,0.6,0.8,0.9,1.5,0.9c0.8,0,1.4-0.3,1.8-0.5L340.1,9.7z M338.8,4.1
	c-1.1,0-1.9,1.1-2.2,2.1c1.8,0,3.2-0.2,3.2-1.3C339.8,4.4,339.4,4.1,338.8,4.1z"/>
<path class="st1" d="M341.5,10.1l0.9-4.8c0.1-0.8,0.2-1.4,0.3-2h1l-0.2,1.3h0c0.6-0.9,1.5-1.4,2.4-1.4c1,0,1.5,0.7,1.6,1.5
	c0.6-1,1.5-1.5,2.5-1.5c0.8,0,1.6,0.5,1.6,1.8c0,0.3,0,0.8-0.1,1.1l-0.8,4h-1.1l0.7-3.9c0.1-0.3,0.1-0.6,0.1-0.9
	c0-0.7-0.3-1.2-1-1.2c-0.8,0-1.8,1-2.1,2.5l-0.7,3.5h-1.1l0.8-4c0.1-0.3,0.1-0.6,0.1-0.8c0-0.6-0.2-1.2-1-1.2s-1.9,1.1-2.2,2.6
	l-0.6,3.4H341.5z"/>
<path class="st1" d="M357.7,9.7c-0.5,0.3-1.3,0.5-2.2,0.5c-1.8,0-2.6-1.2-2.6-2.7c0-2,1.5-4.4,3.7-4.4c1.3,0,2,0.8,2,1.7
	c0,1.8-2,2.3-4.5,2.2c-0.1,0.3,0,0.9,0.1,1.3c0.3,0.6,0.8,0.9,1.5,0.9c0.8,0,1.4-0.3,1.8-0.5L357.7,9.7z M356.4,4.1
	c-1.1,0-1.9,1.1-2.2,2.1c1.8,0,3.2-0.2,3.2-1.3C357.5,4.4,357,4.1,356.4,4.1z"/>
<path class="st1" d="M345,25l-0.1,0.7h-7L338,25H345z"/>
<path class="st1" d="M350.7,23.6c-0.4,0.2-1.1,0.4-2,0.4c-1.8,0-2.6-1.2-2.6-2.6c0-2.3,1.7-4.4,4.1-4.4c0.6,0,1.2,0.2,1.4,0.3
	l-0.3,0.9c-0.3-0.1-0.6-0.3-1.1-0.3c-1.8,0-2.9,1.7-2.9,3.3c0,1.1,0.6,1.8,1.7,1.8c0.7,0,1.2-0.2,1.6-0.4L350.7,23.6z"/>
<path class="st1" d="M352,23.9l1.9-9.9h1.2l-1.9,9.9H352z"/>
<path class="st1" d="M355.2,23.9l1.3-6.8h1.2l-1.3,6.8H355.2z M356.7,15.2c0-0.4,0.4-0.8,0.8-0.8c0.4,0,0.7,0.3,0.7,0.7
	c0,0.5-0.3,0.8-0.8,0.8C357,16,356.7,15.7,356.7,15.2z"/>
<path class="st1" d="M5,23.8c-0.4,0.2-1.1,0.4-2,0.4c-1.8,0-2.6-1.2-2.6-2.6c0-2.3,1.7-4.4,4.1-4.4c0.6,0,1.2,0.2,1.4,0.3l-0.3,0.9
	c-0.3-0.1-0.6-0.3-1.1-0.3c-1.8,0-2.9,1.7-2.9,3.3c0,1.1,0.6,1.8,1.7,1.8c0.7,0,1.2-0.2,1.6-0.4L5,23.8z"/>
<path class="st1" d="M6.2,24.1l1.9-9.9h1.2l-1.2,6.2h0c0.2-0.2,0.5-0.5,0.6-0.7l2.4-2.4h1.4l-3,2.8l2,4h-1.3l-1.6-3.3l-0.9,0.8
	l-0.5,2.6H6.2z"/>
<path class="st1" d="M21.9,20c0,2.1-1.5,4.3-3.8,4.3c-1.7,0-2.6-1.3-2.6-2.8c0-2.2,1.6-4.3,3.8-4.3C21.1,17.2,21.9,18.6,21.9,20z
	 M16.7,21.4c0,1.1,0.6,1.9,1.6,1.9c1.4,0,2.4-1.8,2.4-3.3c0-0.8-0.4-1.9-1.6-1.9C17.7,18.1,16.7,19.9,16.7,21.4z"/>
<path class="st1" d="M22.7,24.1l0.9-4.8c0.2-0.8,0.2-1.4,0.3-2h1l-0.2,1.3h0c0.6-1,1.5-1.5,2.5-1.5c0.8,0,1.7,0.5,1.7,1.9
	c0,0.3-0.1,0.7-0.1,1.1l-0.8,4H27l0.7-3.9c0.1-0.3,0.1-0.6,0.1-0.9c0-0.7-0.3-1.2-1.1-1.2c-0.8,0-2,1-2.3,2.7l-0.6,3.3H22.7z"/>
<path class="st1" d="M32.8,24.1l1.9-9.9h1.2l-1.9,9.9H32.8z"/>
<path class="st1" d="M42.4,20c0,2.1-1.5,4.3-3.8,4.3C37,24.3,36,23,36,21.5c0-2.2,1.6-4.3,3.8-4.3C41.6,17.2,42.4,18.6,42.4,20z
	 M37.2,21.4c0,1.1,0.6,1.9,1.6,1.9c1.4,0,2.4-1.8,2.4-3.3c0-0.8-0.4-1.9-1.6-1.9C38.2,18.1,37.2,19.9,37.2,21.4z"/>
<path class="st1" d="M43.4,25.6c0.4,0.3,1.1,0.4,1.8,0.4c1.1,0,2-0.6,2.4-2.4l0.2-1h0c-0.6,1-1.4,1.4-2.4,1.4
	c-1.4,0-2.1-1.1-2.1-2.4c0-2.3,1.7-4.6,4.3-4.6c0.8,0,1.6,0.2,2.2,0.5l-1,5.6c-0.3,1.4-0.7,2.4-1.4,3c-0.7,0.6-1.6,0.8-2.4,0.8
	c-0.8,0-1.6-0.2-2-0.5L43.4,25.6z M48.6,18.3c-0.2-0.1-0.6-0.2-1.1-0.2c-1.7,0-2.9,1.8-2.9,3.4c0,0.7,0.3,1.6,1.3,1.6
	c1,0,2-1.3,2.3-2.6L48.6,18.3z"/>
<path class="st1" d="M57.1,20c0,2.1-1.5,4.3-3.8,4.3c-1.7,0-2.6-1.3-2.6-2.8c0-2.2,1.6-4.3,3.8-4.3C56.3,17.2,57.1,18.6,57.1,20z
	 M51.9,21.4c0,1.1,0.6,1.9,1.6,1.9c1.4,0,2.4-1.8,2.4-3.3c0-0.8-0.4-1.9-1.6-1.9C52.9,18.1,51.9,19.9,51.9,21.4z"/>
<path class="st1" d="M63,15.5l-0.4,1.8h1.6l-0.2,0.9h-1.6l-0.6,3.3c-0.1,0.4-0.1,0.7-0.1,1.1c0,0.4,0.2,0.6,0.6,0.6
	c0.2,0,0.4,0,0.5,0l-0.1,0.9c-0.2,0.1-0.6,0.1-0.9,0.1c-1,0-1.4-0.6-1.4-1.3c0-0.4,0-0.8,0.1-1.3l0.7-3.4h-1l0.2-0.9h1l0.3-1.5
	L63,15.5z"/>
<path class="st1" d="M70.8,20c0,2.1-1.5,4.3-3.8,4.3c-1.7,0-2.6-1.3-2.6-2.8c0-2.2,1.6-4.3,3.8-4.3C69.9,17.2,70.8,18.6,70.8,20z
	 M65.6,21.4c0,1.1,0.6,1.9,1.6,1.9c1.4,0,2.4-1.8,2.4-3.3c0-0.8-0.4-1.9-1.6-1.9C66.5,18.1,65.5,19.9,65.6,21.4z"/>
<path class="st1" d="M78.8,23.8c-0.4,0.2-1.1,0.4-2,0.4c-1.8,0-2.6-1.2-2.6-2.6c0-2.3,1.7-4.4,4.1-4.4c0.6,0,1.2,0.2,1.4,0.3
	l-0.3,0.9c-0.3-0.1-0.6-0.3-1.1-0.3c-1.8,0-2.9,1.7-2.9,3.3c0,1.1,0.6,1.8,1.7,1.8c0.7,0,1.2-0.2,1.6-0.4L78.8,23.8z"/>
<path class="st1" d="M80,24.1l1.9-9.9h1.2l-0.8,4.4h0c0.6-0.8,1.4-1.4,2.4-1.4c0.8,0,1.7,0.5,1.7,1.8c0,0.4,0,0.8-0.1,1.1l-0.8,4
	h-1.2l0.8-3.9c0-0.3,0.1-0.6,0.1-0.9c0-0.6-0.3-1.1-1.1-1.1c-0.9,0-2,1.1-2.3,2.6l-0.6,3.4H80z"/>
<path class="st1" d="M92,24.1c0-0.4,0.1-1.1,0.2-1.8h0c-0.7,1.4-1.7,1.9-2.6,1.9c-1.2,0-1.9-1-1.9-2.2c0-2.4,1.7-4.8,4.7-4.8
	c0.6,0,1.4,0.1,1.8,0.3L93.4,21c-0.2,1.2-0.3,2.4-0.3,3.1H92z M92.8,18.2c-0.2,0-0.4-0.1-0.8-0.1c-1.8,0-3.2,1.8-3.2,3.7
	c0,0.8,0.3,1.5,1.2,1.5c1,0,2.1-1.3,2.5-3.1L92.8,18.2z"/>
<path class="st1" d="M94.8,24.1l0.9-4.8c0.2-0.8,0.2-1.4,0.3-2h1l-0.2,1.3h0c0.6-1,1.5-1.5,2.5-1.5c0.8,0,1.7,0.5,1.7,1.9
	c0,0.3-0.1,0.7-0.1,1.1l-0.8,4h-1.2l0.7-3.9c0.1-0.3,0.1-0.6,0.1-0.9c0-0.7-0.3-1.2-1.1-1.2c-0.8,0-2,1-2.3,2.7L96,24.1H94.8z"/>
<path class="st1" d="M102.4,25.6c0.4,0.3,1.1,0.4,1.8,0.4c1.1,0,2-0.6,2.4-2.4l0.2-1h0c-0.6,1-1.4,1.4-2.4,1.4
	c-1.4,0-2.1-1.1-2.1-2.4c0-2.3,1.7-4.6,4.3-4.6c0.8,0,1.6,0.2,2.2,0.5l-1,5.6c-0.3,1.4-0.7,2.4-1.4,3c-0.7,0.6-1.6,0.8-2.4,0.8
	c-0.8,0-1.6-0.2-2-0.5L102.4,25.6z M107.6,18.3c-0.2-0.1-0.6-0.2-1.1-0.2c-1.7,0-2.9,1.8-2.9,3.4c0,0.7,0.3,1.6,1.3,1.6
	c1,0,2-1.3,2.3-2.6L107.6,18.3z"/>
<path class="st1" d="M114.5,23.7c-0.5,0.3-1.3,0.5-2.2,0.5c-1.8,0-2.6-1.2-2.6-2.7c0-2,1.5-4.4,3.7-4.4c1.3,0,2,0.8,2,1.7
	c0,1.8-2,2.3-4.5,2.2c-0.1,0.3,0,0.9,0.1,1.3c0.3,0.6,0.8,0.9,1.5,0.9c0.8,0,1.4-0.3,1.8-0.5L114.5,23.7z M113.2,18.1
	c-1.1,0-1.9,1.1-2.2,2.1c1.8,0,3.3-0.2,3.3-1.3C114.3,18.4,113.8,18.1,113.2,18.1z"/>
<path class="st1" d="M121.6,15.5l-0.4,1.8h1.6l-0.2,0.9H121l-0.6,3.3c-0.1,0.4-0.1,0.7-0.1,1.1c0,0.4,0.2,0.6,0.6,0.6
	c0.2,0,0.4,0,0.5,0l-0.1,0.9c-0.2,0.1-0.6,0.1-0.9,0.1c-1,0-1.4-0.6-1.4-1.3c0-0.4,0-0.8,0.1-1.3l0.7-3.4h-1l0.2-0.9h1l0.3-1.5
	L121.6,15.5z"/>
<path class="st1" d="M122.9,24.1l1.9-9.9h1.2l-0.8,4.4h0c0.6-0.8,1.4-1.4,2.4-1.4c0.8,0,1.7,0.5,1.7,1.8c0,0.4,0,0.8-0.1,1.1l-0.8,4
	h-1.2l0.8-3.9c0-0.3,0.1-0.6,0.1-0.9c0-0.6-0.3-1.1-1.1-1.1c-0.9,0-2,1.1-2.3,2.6l-0.6,3.4H122.9z"/>
<path class="st1" d="M135.3,23.7c-0.5,0.3-1.3,0.5-2.2,0.5c-1.8,0-2.6-1.2-2.6-2.7c0-2,1.5-4.4,3.7-4.4c1.3,0,2,0.8,2,1.7
	c0,1.8-2,2.3-4.5,2.2c-0.1,0.3,0,0.9,0.1,1.3c0.3,0.6,0.8,0.9,1.5,0.9c0.8,0,1.4-0.3,1.8-0.5L135.3,23.7z M134,18.1
	c-1.1,0-1.9,1.1-2.2,2.1c1.8,0,3.3-0.2,3.3-1.3C135,18.4,134.6,18.1,134,18.1z"/>
<path class="st1" d="M136.7,24.1l0.9-4.8c0.1-0.8,0.2-1.4,0.3-2h1l-0.2,1.3h0c0.6-0.9,1.5-1.4,2.4-1.4c1,0,1.5,0.7,1.6,1.5
	c0.6-1,1.5-1.5,2.5-1.5c0.8,0,1.6,0.5,1.6,1.8c0,0.3,0,0.8-0.1,1.1l-0.8,4h-1.1l0.7-3.9c0.1-0.3,0.1-0.6,0.1-0.9
	c0-0.7-0.3-1.2-1-1.2c-0.8,0-1.8,1-2.1,2.5l-0.7,3.5h-1.1l0.8-4c0.1-0.3,0.1-0.6,0.1-0.8c0-0.6-0.2-1.2-1-1.2s-1.9,1.1-2.2,2.6
	l-0.6,3.4H136.7z"/>
<path class="st1" d="M152.9,23.7c-0.5,0.3-1.3,0.5-2.2,0.5c-1.8,0-2.6-1.2-2.6-2.7c0-2,1.5-4.4,3.7-4.4c1.3,0,2,0.8,2,1.7
	c0,1.8-2,2.3-4.5,2.2c-0.1,0.3,0,0.9,0.1,1.3c0.3,0.6,0.8,0.9,1.5,0.9c0.8,0,1.4-0.3,1.8-0.5L152.9,23.7z M151.6,18.1
	c-1.1,0-1.9,1.1-2.2,2.1c1.8,0,3.2-0.2,3.2-1.3C152.7,18.4,152.2,18.1,151.6,18.1z"/>
<path class="st0" d="M160.3,25.2l-0.1,0.7h-7l0.1-0.7H160.3z"/>
<path class="st0" d="M166.8,23.8c-0.3,0.2-1,0.4-1.9,0.4c-2,0-3.4-1.4-3.4-3.5c0-2.1,1.4-3.6,3.6-3.6c0.7,0,1.4,0.2,1.7,0.4l-0.3,1
	c-0.3-0.2-0.8-0.3-1.4-0.3c-1.6,0-2.4,1.1-2.4,2.6c0,1.6,1,2.5,2.4,2.5c0.7,0,1.2-0.2,1.5-0.3L166.8,23.8z"/>
<path class="st0" d="M168.3,14.2h1.2v9.9h-1.2V14.2z"/>
<path class="st0" d="M172.9,15.4c0,0.4-0.3,0.8-0.8,0.8c-0.4,0-0.7-0.3-0.7-0.8c0-0.4,0.3-0.8,0.8-0.8
	C172.7,14.6,172.9,15,172.9,15.4z M171.6,24.1v-6.8h1.2v6.8H171.6z"/>
<path class="st0" d="M179.7,23.8c-0.3,0.2-1,0.4-1.9,0.4c-2,0-3.4-1.4-3.4-3.5c0-2.1,1.4-3.6,3.6-3.6c0.7,0,1.4,0.2,1.7,0.4l-0.3,1
	c-0.3-0.2-0.8-0.3-1.4-0.3c-1.6,0-2.4,1.1-2.4,2.6c0,1.6,1,2.5,2.4,2.5c0.7,0,1.2-0.2,1.5-0.3L179.7,23.8z"/>
<path class="st0" d="M182.3,20.4L182.3,20.4c0.2-0.2,0.4-0.5,0.6-0.8l2-2.3h1.5l-2.6,2.8l3,4h-1.5l-2.3-3.3l-0.6,0.7v2.5h-1.2v-9.9
	h1.2V20.4z"/>
<path class="st0" d="M196.8,20.7c0,2.5-1.7,3.6-3.4,3.6c-1.8,0-3.3-1.3-3.3-3.5c0-2.3,1.5-3.6,3.4-3.6
	C195.5,17.2,196.8,18.6,196.8,20.7z M191.4,20.7c0,1.5,0.9,2.6,2.1,2.6c1.2,0,2.1-1.1,2.1-2.6c0-1.1-0.6-2.6-2-2.6
	S191.4,19.4,191.4,20.7z"/>
<path class="st0" d="M198.3,19.2c0-0.7,0-1.3-0.1-1.8h1.1l0.1,1.1h0c0.3-0.6,1.1-1.3,2.2-1.3c0.9,0,2.4,0.6,2.4,2.9v4h-1.2v-3.9
	c0-1.1-0.4-2-1.6-2c-0.8,0-1.4,0.6-1.7,1.3c-0.1,0.2-0.1,0.4-0.1,0.6v4.1h-1.2V19.2z"/>
<path class="st0" d="M209.1,14.2h1.2v9.9h-1.2V14.2z"/>
<path class="st0" d="M218.5,20.7c0,2.5-1.7,3.6-3.4,3.6c-1.8,0-3.3-1.3-3.3-3.5c0-2.3,1.5-3.6,3.4-3.6
	C217.2,17.2,218.5,18.6,218.5,20.7z M213.1,20.7c0,1.5,0.9,2.6,2.1,2.6c1.2,0,2.1-1.1,2.1-2.6c0-1.1-0.6-2.6-2-2.6
	S213.1,19.4,213.1,20.7z"/>
<path class="st0" d="M225.9,17.3c0,0.5-0.1,1-0.1,1.9v3.9c0,1.6-0.3,2.5-1,3.1c-0.7,0.6-1.6,0.8-2.5,0.8c-0.8,0-1.7-0.2-2.3-0.6
	l0.3-0.9c0.4,0.3,1.1,0.5,2,0.5c1.3,0,2.2-0.7,2.2-2.4v-0.8h0c-0.4,0.6-1.1,1.1-2.2,1.1c-1.7,0-2.9-1.4-2.9-3.3
	c0-2.3,1.5-3.6,3.1-3.6c1.2,0,1.8,0.6,2.1,1.2h0l0.1-1H225.9z M224.6,20c0-0.2,0-0.4-0.1-0.6c-0.2-0.7-0.8-1.3-1.7-1.3
	c-1.2,0-2,1-2,2.6c0,1.3,0.7,2.4,2,2.4c0.8,0,1.4-0.5,1.7-1.3c0.1-0.2,0.1-0.4,0.1-0.7V20z"/>
<path class="st0" d="M234,20.7c0,2.5-1.7,3.6-3.4,3.6c-1.8,0-3.3-1.3-3.3-3.5c0-2.3,1.5-3.6,3.4-3.6C232.7,17.2,234,18.6,234,20.7z
	 M228.7,20.7c0,1.5,0.9,2.6,2.1,2.6c1.2,0,2.1-1.1,2.1-2.6c0-1.1-0.6-2.6-2-2.6S228.7,19.4,228.7,20.7z"/>
<path class="st0" d="M240.6,15.4v1.9h1.8v0.9h-1.8v3.7c0,0.8,0.2,1.3,0.9,1.3c0.3,0,0.6,0,0.7-0.1l0.1,0.9c-0.2,0.1-0.6,0.2-1.1,0.2
	c-0.6,0-1-0.2-1.3-0.5c-0.4-0.4-0.5-1-0.5-1.8v-3.7h-1.1v-0.9h1.1v-1.6L240.6,15.4z"/>
<path class="st0" d="M249.8,20.7c0,2.5-1.7,3.6-3.4,3.6c-1.8,0-3.3-1.3-3.3-3.5c0-2.3,1.5-3.6,3.4-3.6
	C248.5,17.2,249.8,18.6,249.8,20.7z M244.4,20.7c0,1.5,0.9,2.6,2.1,2.6c1.2,0,2.1-1.1,2.1-2.6c0-1.1-0.6-2.6-2-2.6
	S244.4,19.4,244.4,20.7z"/>
<path class="st0" d="M259.2,23.8c-0.3,0.2-1,0.4-1.9,0.4c-2,0-3.4-1.4-3.4-3.5c0-2.1,1.4-3.6,3.6-3.6c0.7,0,1.4,0.2,1.7,0.4l-0.3,1
	c-0.3-0.2-0.8-0.3-1.4-0.3c-1.6,0-2.4,1.1-2.4,2.6c0,1.6,1,2.5,2.4,2.5c0.7,0,1.2-0.2,1.5-0.3L259.2,23.8z"/>
<path class="st0" d="M260.6,14.2h1.2v4.2h0c0.2-0.4,0.5-0.7,0.9-0.9c0.4-0.2,0.8-0.4,1.3-0.4c0.9,0,2.4,0.6,2.4,2.9v4h-1.2v-3.9
	c0-1.1-0.4-2-1.6-2c-0.8,0-1.4,0.6-1.7,1.2c-0.1,0.2-0.1,0.4-0.1,0.6v4.1h-1.2V14.2z"/>
<path class="st0" d="M272.1,24.1l-0.1-0.9h0c-0.4,0.5-1.1,1-2.1,1c-1.4,0-2.1-1-2.1-1.9c0-1.6,1.5-2.5,4.1-2.5v-0.1
	c0-0.6-0.2-1.6-1.5-1.6c-0.6,0-1.3,0.2-1.8,0.5l-0.3-0.8c0.6-0.4,1.4-0.6,2.2-0.6c2.1,0,2.6,1.4,2.6,2.8v2.5c0,0.6,0,1.2,0.1,1.6
	H272.1z M271.9,20.6c-1.3,0-2.9,0.2-2.9,1.5c0,0.8,0.5,1.2,1.2,1.2c0.9,0,1.4-0.6,1.6-1.1c0-0.1,0.1-0.3,0.1-0.4V20.6z"/>
<path class="st0" d="M275.1,19.2c0-0.7,0-1.3-0.1-1.8h1.1l0.1,1.1h0c0.3-0.6,1.1-1.3,2.2-1.3c0.9,0,2.4,0.6,2.4,2.9v4h-1.2v-3.9
	c0-1.1-0.4-2-1.6-2c-0.8,0-1.4,0.6-1.7,1.3c-0.1,0.2-0.1,0.4-0.1,0.6v4.1h-1.2V19.2z"/>
<path class="st0" d="M288.7,17.3c0,0.5-0.1,1-0.1,1.9v3.9c0,1.6-0.3,2.5-1,3.1c-0.7,0.6-1.6,0.8-2.5,0.8c-0.8,0-1.7-0.2-2.3-0.6
	l0.3-0.9c0.4,0.3,1.1,0.5,2,0.5c1.3,0,2.2-0.7,2.2-2.4v-0.8h0c-0.4,0.6-1.1,1.1-2.2,1.1c-1.7,0-2.9-1.4-2.9-3.3
	c0-2.3,1.5-3.6,3.1-3.6c1.2,0,1.8,0.6,2.1,1.2h0l0.1-1H288.7z M287.5,20c0-0.2,0-0.4-0.1-0.6c-0.2-0.7-0.8-1.3-1.7-1.3
	c-1.2,0-2,1-2,2.6c0,1.3,0.7,2.4,2,2.4c0.8,0,1.4-0.5,1.7-1.3c0.1-0.2,0.1-0.4,0.1-0.7V20z"/>
<path class="st0" d="M291.4,20.9c0,1.7,1.1,2.4,2.3,2.4c0.9,0,1.4-0.2,1.9-0.4l0.2,0.9c-0.4,0.2-1.2,0.4-2.3,0.4
	c-2.1,0-3.3-1.4-3.3-3.4c0-2,1.2-3.7,3.2-3.7c2.2,0,2.8,1.9,2.8,3.2c0,0.3,0,0.4,0,0.6H291.4z M295,20.1c0-0.8-0.3-2-1.7-2
	c-1.2,0-1.8,1.1-1.9,2H295z"/>
<path class="st0" d="M302.2,15.4v1.9h1.8v0.9h-1.8v3.7c0,0.8,0.2,1.3,0.9,1.3c0.3,0,0.6,0,0.7-0.1l0.1,0.9c-0.2,0.1-0.6,0.2-1.1,0.2
	c-0.6,0-1-0.2-1.3-0.5c-0.4-0.4-0.5-1-0.5-1.8v-3.7h-1.1v-0.9h1.1v-1.6L302.2,15.4z"/>
<path class="st0" d="M305.3,14.2h1.2v4.2h0c0.2-0.4,0.5-0.7,0.9-0.9c0.4-0.2,0.8-0.4,1.3-0.4c0.9,0,2.4,0.6,2.4,2.9v4h-1.2v-3.9
	c0-1.1-0.4-2-1.6-2c-0.8,0-1.4,0.6-1.7,1.2c-0.1,0.2-0.1,0.4-0.1,0.6v4.1h-1.2V14.2z"/>
<path class="st0" d="M313.8,20.9c0,1.7,1.1,2.4,2.3,2.4c0.9,0,1.4-0.2,1.9-0.4l0.2,0.9c-0.4,0.2-1.2,0.4-2.3,0.4
	c-2.1,0-3.3-1.4-3.3-3.4c0-2,1.2-3.7,3.2-3.7c2.2,0,2.8,1.9,2.8,3.2c0,0.3,0,0.4,0,0.6H313.8z M317.4,20.1c0-0.8-0.3-2-1.7-2
	c-1.2,0-1.8,1.1-1.9,2H317.4z"/>
<path class="st0" d="M320.1,19.2c0-0.7,0-1.3-0.1-1.8h1.1l0.1,1.1h0c0.4-0.6,1-1.2,2.1-1.2c0.9,0,1.6,0.6,1.9,1.4h0
	c0.2-0.4,0.5-0.7,0.8-0.9c0.4-0.3,0.9-0.5,1.5-0.5c0.9,0,2.2,0.6,2.2,2.9v4h-1.2v-3.8c0-1.3-0.5-2.1-1.5-2.1c-0.7,0-1.2,0.5-1.5,1.1
	c-0.1,0.2-0.1,0.4-0.1,0.6v4.2h-1.2V20c0-1.1-0.5-1.9-1.4-1.9c-0.8,0-1.3,0.6-1.5,1.2c-0.1,0.2-0.1,0.4-0.1,0.6v4.1h-1.2V19.2z"/>
<path class="st0" d="M332.5,20.9c0,1.7,1.1,2.4,2.3,2.4c0.9,0,1.4-0.2,1.9-0.4l0.2,0.9c-0.4,0.2-1.2,0.4-2.3,0.4
	c-2.1,0-3.3-1.4-3.3-3.4c0-2,1.2-3.7,3.2-3.7c2.2,0,2.8,1.9,2.8,3.2c0,0.3,0,0.4,0,0.6H332.5z M336.1,20.1c0-0.8-0.3-2-1.7-2
	c-1.2,0-1.8,1.1-1.9,2H336.1z"/>
<rect x="338.2" y="32.2" class="st1" width="2.8" height="2.3"/>
</svg>
