<?xml version="1.0" standalone="no"?>
<!DOCTYPE svg PUBLIC "-//W3C//DTD SVG 20010904//EN"
 "http://www.w3.org/TR/2001/REC-SVG-20010904/DTD/svg10.dtd">
<svg version="1.0" xmlns="http://www.w3.org/2000/svg"
 width="700.000000pt" height="700.000000pt" viewBox="0 0 700.000000 700.000000"
 preserveAspectRatio="xMidYMid meet">
<metadata>
Created by potrace 1.11, written by Peter Selinger 2001-2013
</metadata>
<g transform="translate(0.000000,700.000000) scale(0.100000,-0.100000)"
fill="#000000" stroke="none">
<path d="M2490 5290 c-88 -10 -178 -41 -219 -76 -16 -13 -41 -50 -57 -81 l-29
-58 0 -1560 c0 -1333 2 -1567 14 -1610 20 -67 88 -135 164 -164 82 -30 222
-44 332 -32 172 19 247 57 292 150 l28 56 5 580 5 579 265 -304 c146 -168 384
-441 529 -608 145 -167 286 -326 315 -354 104 -103 206 -127 318 -75 118 54
310 224 359 317 17 33 23 61 23 107 -1 96 -47 177 -196 348 -120 136 -532 571
-547 577 -5 2 -104 96 -221 211 l-213 207 460 458 c566 562 671 685 709 834
18 68 13 103 -24 172 -28 50 -183 205 -261 259 -106 73 -220 90 -306 45 -69
-36 -105 -73 -384 -393 -134 -154 -375 -430 -535 -614 l-291 -334 -6 574 c-5
597 -7 620 -49 680 -24 32 -101 74 -172 93 -74 19 -215 26 -308 16z"/>
</g>
</svg>
