<svg id="Layer_1" data-name="Layer 1" xmlns="http://www.w3.org/2000/svg" viewBox="0 0 23.99 23.97"><defs><style>.cls-1{fill:#fcfcfc;}</style></defs><title>cross</title><path class="cls-1" d="M23.73,2.9a.92.92,0,0,1,0,1.3l-7.17,7.16a.92.92,0,0,0,0,1.3l7.16,7.16a.92.92,0,0,1,0,1.3l-2.61,2.6a.93.93,0,0,1-1.3,0l-7.16-7.16a.93.93,0,0,0-1.3,0L4.18,23.73a.93.93,0,0,1-1.3,0L.27,21.12a.92.92,0,0,1,0-1.3l7.17-7.16a.92.92,0,0,0,0-1.3L.27,4.2a.92.92,0,0,1,0-1.3L2.88.29a.93.93,0,0,1,1.3,0l7.16,7.16a.92.92,0,0,0,1.3,0L19.82.3a.93.93,0,0,1,1.3,0Z" transform="translate(0 -0.03)"/></svg>