<svg id="Layer_1" data-name="Layer 1" xmlns="http://www.w3.org/2000/svg" viewBox="0 0 512 512"><title>gear2</title><path d="M256,133.61A122.39,122.39,0,1,0,378.39,256,122.53,122.53,0,0,0,256,133.61Zm0,214.18A91.79,91.79,0,1,1,347.79,256,91.9,91.9,0,0,1,256,347.79Z" style="fill:#070707;opacity:0.8"/><path d="M500,197.7l-39.35-8.55a214.16,214.16,0,0,0-12.66-30.54l21.79-33.89a15.3,15.3,0,0,0-2.05-19.09l-61.3-61.3a15.3,15.3,0,0,0-19.09-2.05L353.39,64.06A214.16,214.16,0,0,0,322.85,51.4L314.3,12A15.3,15.3,0,0,0,299.35,0h-86.7A15.3,15.3,0,0,0,197.7,12L189.15,51.4a214.16,214.16,0,0,0-30.54,12.66L124.72,42.28a15.3,15.3,0,0,0-19.09,2.05l-61.3,61.3a15.3,15.3,0,0,0-2.05,19.09l21.79,33.89A214.16,214.16,0,0,0,51.4,189.15L12,197.7A15.3,15.3,0,0,0,0,212.65v86.7A15.3,15.3,0,0,0,12,314.3l39.35,8.55a214.16,214.16,0,0,0,12.66,30.54L42.28,387.28a15.3,15.3,0,0,0,2.05,19.09l61.3,61.3a15.3,15.3,0,0,0,19.09,2.05l33.89-21.79a214.16,214.16,0,0,0,30.54,12.66L197.7,500a15.3,15.3,0,0,0,14.95,12h86.7a15.3,15.3,0,0,0,14.95-12l8.55-39.35a214.16,214.16,0,0,0,30.54-12.66l33.89,21.79a15.3,15.3,0,0,0,19.09-2.05l61.3-61.3a15.3,15.3,0,0,0,2.05-19.09l-21.79-33.89a214.16,214.16,0,0,0,12.66-30.54L500,314.3a15.3,15.3,0,0,0,12-14.95v-86.7A15.3,15.3,0,0,0,500,197.7ZM481.4,287l-36.08,7.84a15.31,15.31,0,0,0-11.49,10.84,183.56,183.56,0,0,1-16.95,40.88,15.29,15.29,0,0,0,.45,15.79l20,31.08-43.86,43.87-31.08-20a15.29,15.29,0,0,0-15.79-.45,183.67,183.67,0,0,1-40.88,16.95,15.31,15.31,0,0,0-10.84,11.49L287,481.4H225l-7.84-36.08a15.31,15.31,0,0,0-10.84-11.49,183.56,183.56,0,0,1-40.88-16.95,15.3,15.3,0,0,0-15.79.45l-31.08,20L74.69,393.45l20-31.08a15.29,15.29,0,0,0,.46-15.79,183.76,183.76,0,0,1-17-40.88,15.3,15.3,0,0,0-11.48-10.84L30.6,287V225l36.08-7.84A15.31,15.31,0,0,0,78.17,206.3a183.56,183.56,0,0,1,16.95-40.88,15.29,15.29,0,0,0-.45-15.79l-20-31.08,43.86-43.87,31.08,20a15.29,15.29,0,0,0,15.79.45A183.67,183.67,0,0,1,206.3,78.17a15.31,15.31,0,0,0,10.84-11.49L225,30.6h62l7.84,36.08A15.31,15.31,0,0,0,305.7,78.17a183.56,183.56,0,0,1,40.88,16.95,15.3,15.3,0,0,0,15.79-.45l31.08-20,43.86,43.87-20,31.08a15.29,15.29,0,0,0-.46,15.79,183.58,183.58,0,0,1,17,40.88,15.3,15.3,0,0,0,11.48,10.84L481.4,225Z" style="fill:#070707;opacity:0.8"/></svg>